<?xml version="1.0" encoding="utf-8"?>
<!-- Generator: Adobe Illustrator 15.0.0, SVG Export Plug-In . SVG Version: 6.00 Build 0)  -->
<!DOCTYPE svg PUBLIC "-//W3C//DTD SVG 1.1//EN" "http://www.w3.org/Graphics/SVG/1.1/DTD/svg11.dtd">
<svg version="1.1" id="图层_1" xmlns="http://www.w3.org/2000/svg" xmlns:xlink="http://www.w3.org/1999/xlink" x="0px" y="0px"
	 width="841.89px" height="595.28px" viewBox="0 0 841.89 595.28" enable-background="new 0 0 841.89 595.28" xml:space="preserve">
<path fill-rule="evenodd" clip-rule="evenodd" d="M441.771,136.145c2.373,6.339,7.085,18.272,2.108,25.312
	c-8.058,1.027-6.602-7.46-10.546-10.546c-13.595,2.577-12.648,19.694-29.529,18.983C409.094,152.17,425.181,135.73,441.771,136.145z
	"/>
<path fill-rule="evenodd" clip-rule="evenodd" d="M363.728,138.254c2.284,10.861,18.893,16.998,12.655,29.53
	c-11.569,1.726-8.979-10.707-16.874-12.656c-4.769,4.372-6.588,11.693-8.438,18.983c-14.415,1.76-19.491-5.819-31.639-6.328
	c-4.132,4.272,9.514,8.662,6.328,18.983c-17.06-2.627-20.239-19.134-27.421-31.639c14.206-5.279,30.795,4,42.186,8.438
	C350.729,157.597,343.747,134.445,363.728,138.254z"/>
<path fill-rule="evenodd" clip-rule="evenodd" d="M391.147,142.473c11.751,0.364,9.025,19.225,2.109,23.202
	C381.114,165.324,390.106,148.652,391.147,142.473z"/>
<path fill-rule="evenodd" clip-rule="evenodd" d="M458.645,148.8c4.899,2.356,5.646-0.452,10.546,4.219
	c-3.258,7.288-8.001,13.092-18.983,12.655C447.444,154.475,457.745,156.338,458.645,148.8z"/>
<path fill-rule="evenodd" clip-rule="evenodd" d="M536.688,370.273c-7.198,4.007-10.553-11.164-16.875-14.765
	c10.137-72.122-27.331-110.794-37.967-168.742c-9.202,1.344-10.287,10.805-14.765,16.874c14.83,7.367,5.069,16.729,16.874,29.53
	c-15.924-3.132-15.235-18.897-25.311-23.202c-1.388-7.715,4.563-8.092,4.218-14.765c-5.787-0.105-20.117,9.369-23.201,18.983
	c-31.619-8.903-69.454,0.65-94.917,10.546c-16.462-6.037-26.562-18.436-50.623-16.874c8.242,8.632,21.718,12.031,27.421,23.202
	c-9.639,11.928-6.233,25.826-18.983,35.858c-3.466-15.952-3.806-25.357,4.219-37.967c-5.786-8.979-16.191-13.339-25.312-18.983
	c12.248,58.36,13.751,125.73-14.765,168.741c-2.872-30.271,21.592-58.603,16.874-105.463c-2.552-25.352-17.09-50.65-8.437-75.934
	c30.875-2.049,54.933,2.72,69.606,16.874c23.349-7.807,54.804-15.627,84.37-10.546c17.251-10.17,28.819-26.021,52.731-29.53
	c24.314,15.247,16.752,46.363,25.312,73.825c8.543,27.406,33.835,58.541,16.874,101.245
	C527.568,356.894,536.168,359.543,536.688,370.273z"/>
<path fill-rule="evenodd" clip-rule="evenodd" d="M534.578,188.876c0.9,10.744-3.239,16.447-6.328,23.202
	c3.598,4.136,14.798,0.671,16.874,6.328c-2.553,14.322-4.33,29.417-16.874,33.748c-6.014-8.629,3.208-17.012,4.219-25.311
	c-5.671-5.145-11.79,2.392-16.874-4.219c-0.485-9.625,3.548-14.731,6.327-21.092c-2.94-6.347-10.916,4.384-14.765-2.109
	C506.981,187.415,525.927,185.245,534.578,188.876z"/>
<path fill-rule="evenodd" clip-rule="evenodd" d="M270.919,252.154c-10.396,4.743-24.846-2.744-25.311-14.765
	C255.821,232.829,271.803,238.786,270.919,252.154z"/>
<path fill-rule="evenodd" clip-rule="evenodd" d="M490.283,254.264c6.303,34.873-39.574,36.6-46.404,14.765
	c-0.452-1.447-0.782-2.846-1-4.196C438.655,238.623,476.945,230.886,490.283,254.264z M448.098,269.028
	c7.301,3.949,8.577,9.077,24.874,6.328c10.75-5.579,12.539-8.288,10.983-18.983c-6.947-13.494-32.296-14.172-36.081,2.322
	C447.207,261.599,447.209,265.036,448.098,269.028z"/>
<path fill-rule="evenodd" clip-rule="evenodd" d="M336.307,273.247c6.332-18.962,21.193-20.7,31.832-21.642
	c18.829-1.667,27.232,11.112,25.118,25.86C389.82,301.443,339.799,299.154,336.307,273.247z M386.929,275.356
	c-2.207-13.743-6.64-15.395-12.655-16.874c-15.802-1.877-25.705,9.401-28.206,14.112c-1.44,2.713,7.063,12.703,15.105,15.001
	C369.779,290.055,380.156,287.756,386.929,275.356z"/>
<path fill-rule="evenodd" clip-rule="evenodd" d="M239.28,258.482c11.928,3.54,30.137,0.799,33.749,12.655
	c-5.79,4.734-15.303-0.314-21.093-2.109c2.05,8.496,8.181,12.913,12.656,18.983c0.357,5.279-3.24,6.603-6.328,8.438
	c1.887,3.737,8.562,2.688,6.328,10.546c-12.276,1.729-16.467-4.626-21.093-10.546c1.834-3.088,3.158-6.686,8.437-6.328
	C249.817,278.431,231.865,272.842,239.28,258.482z"/>
<path fill-rule="evenodd" clip-rule="evenodd" d="M361.722,266.23c7-2.75,11.666-0.698,12.781,1.259
	c1.969,3.454-0.349,7.316-3.781,10.116c-3.18,2.594-7.967,3.359-10.454,1.79c-1.214-0.766-2.91-2.86-2.796-5.54
	c0.081-1.894,0.368-2.912,2.25-6.75c0.115,1.387-0.495,2.401,0.438,5.063c0.618,1.764,1.563,2.063,3.709,1.919
	C369.347,273.105,368.685,267.667,361.722,266.23z"/>
<path fill-rule="evenodd" clip-rule="evenodd" d="M435.442,275.356c7.181,4.494,8.679,13.158,12.655,21.093
	c-0.459,3.156-3.077,4.764-4.1,7.021c-17.49,38.609,61.869,52.376,52.613,5.634c15.693,18.168-0.307,35.834-18.983,42.186
	c-3.467,1.179-8.866-3.187-12.656-2.109c-15.75,4.477-25.827,19.876-44.294,8.438c-6.568,1.599-8.797,4.079-15.819,6.987
	c-5.65,2.34-12.505,2.821-22.542-0.172c-13.63-7.34-21.046-16.312-18.589-36.346c11.107,42.812,68.085,30.48,65.387-14.765
	c-11.804-3.347-21.957-18.295-14.765-33.749c6.033,0.295,5.261,8.601,5.622,14.568c7.403,4.599,13.293,6.129,19.689-1.912
	C439.542,285.318,433.662,284.167,435.442,275.356z M429.114,349.181c4.406,4.157,14.007,1.612,18.983,0
	C448.869,338.145,431.218,344.342,429.114,349.181z"/>
<path fill-rule="evenodd" clip-rule="evenodd" d="M310.995,372.383c0.059-2.052,2.582-1.637,4.219-2.109
	c31.873,45.666,141.813,45.855,183.507,8.437C469.199,432.623,334.296,428.604,310.995,372.383z"/>
<path fill-rule="evenodd" clip-rule="evenodd" d="M454.426,370.273c-0.29,9.633-17.809,10.639-25.312,6.328
	C432.031,368.972,447.56,373.953,454.426,370.273z"/>
<path fill-rule="evenodd" clip-rule="evenodd" d="M473.01,269.028c-6.294,3.539-10.502,1.469-12.225-0.574
	c-2.332-2.767-3.27-5.96-1.643-9.359c0.96-2.005,3.948-3.782,5.954-4.782c0.287-0.144-1.044,1.195-1.085,2.661
	c-0.033,1.199-0.038,2.514,0.21,3.256c0.744,2.225,2.747,1.855,3.5,1.879c0.782,0.025,1.882-0.354,2.625-2.379
	c0.241-0.658,0.038-2.078-0.849-3.188c-1.383-1.732-2.493-2.495-2.151-2.193c0.596,0.525,3.112,0.879,4.5,1.756
	c1.924,1.216,2.787,3.144,3.283,5.301C475.722,263.98,475.218,266.442,473.01,269.028L473.01,269.028z"/>
</svg>
