<?xml version="1.0" encoding="utf-8"?>
<!-- Generator: Adobe Illustrator 23.0.0, SVG Export Plug-In . SVG Version: 6.00 Build 0)  -->
<svg version="1.1" id="图层_1" xmlns="http://www.w3.org/2000/svg" xmlns:xlink="http://www.w3.org/1999/xlink" x="0px" y="0px"
	 viewBox="0 0 595.3 841.9" style="enable-background:new 0 0 595.3 841.9;" xml:space="preserve">
<path d="M276.2,329c-65.8,0-131.7,0-197.5,0c-17.2,0-30.3-7.1-39.2-21.8c-4-6.6-5.8-13.9-5.8-21.6c0-66.3,0-132.7,0-199
	c0-21.9,16.1-40.1,37.9-43c2.4-0.3,4.9-0.3,7.4-0.3c131.5,0,263.1,0.1,394.6-0.1c23.3,0,39.9,15.3,43.9,33.2
	c0.7,3.2,1.2,6.5,1.2,9.7c0.1,66.7,0.1,133.3,0,200c0,22.8-18.2,41.6-41,42.7c-1.6,0.1-3.3,0.1-4.9,0.1
	C407.3,329,341.7,329,276.2,329z M53.8,224.5c148.5,0,296.6,0,444.9,0c0-1,0-1.8,0-2.6c0-44.9,0-89.7,0-134.6c0-14-10-24-24-24
	c-132.3,0-264.5,0-396.8,0c-1.9,0-3.8,0.1-5.6,0.5c-11,2.4-18.4,11.6-18.4,22.9c0,45,0,90,0,135C53.8,222.7,53.8,223.5,53.8,224.5z"
	/>
</svg>
