<?xml version="1.0" encoding="utf-8"?>
<!-- Generator: Adobe Illustrator 15.0.0, SVG Export Plug-In . SVG Version: 6.00 Build 0)  -->
<!DOCTYPE svg PUBLIC "-//W3C//DTD SVG 1.1//EN" "http://www.w3.org/Graphics/SVG/1.1/DTD/svg11.dtd">
<svg version="1.1" id="图层_1" xmlns="http://www.w3.org/2000/svg" xmlns:xlink="http://www.w3.org/1999/xlink" x="0px" y="0px"
	 width="841.89px" height="595.28px" viewBox="0 0 841.89 595.28" enable-background="new 0 0 841.89 595.28" xml:space="preserve">
<path fill-rule="evenodd" clip-rule="evenodd" d="M473.947,62.718c1.667,0,3.333,0,5,0c19.282,6.718,38.333,13.667,57,21
	c0.208,2.513-4.879,5.358,1,5c4.562,0.691-3.029,4.397-4,6c8.328,6.198,10.373,15.777,17,25c5.166,7.189,18.742,11.455,26,19
	c9.002,9.358,15.976,29.411,28,40c9.953,8.764,20.176,12.75,25,21c4.712,8.059,4.171,18.464,8,26c4.475,8.809,22.063,25.742,33,28
	c18.874,3.896,30.109-9.464,48-7c9.233,5.766,13.665,16.335,18,27c0,6.334,0,12.666,0,19c-8.601,9.588-27.028,14.046-22,34
	c-13.239-16.759,10.335-53.579-20-57c-2.128,3.173,3.752,6.881,3,12c-4.039-3.406-4.539-10.424-10-13
	c-4.448-2.098-10.636-0.442-15-2c-12.968-4.629-18.864-19.919-32-23c-0.759,6.899-2.575,19.619-7,26
	c2.441,21.385,7.234,47.057,13,67c4.795,16.587,14.527,30.848,18,46c4.052,17.678-13.571,29.355-16,47
	c-1.269,9.215,2.983,20.168,1,31c-1.306,7.133-10.429,11.431-9,23c-5.691,5.405-17.598,3.134-28,4c-9.759,0.813-20.568,5.034-24-4
	c4.82-5.847,12.437-8.897,22-10c17.266-15.905,30.139-46.684,27-79c-2.01-20.694-17.768-34.354-24-49
	c-10.299,21.035,9.438,39.389,0,57c-2.685,5.009-10.198,8.505-14,13c-4.659,5.509-10.482,13.66-16,21
	c-5.405,7.189-12.997,14.759-16,21c-1.779,3.698-1.24,8.569-3,12c-3.832,7.47-14.706,11.217-13,22
	c-15.28-3.446-17.447,3.773-43.447,0.887c-8.047-0.894,3.006-0.221-9.553-1.887c14.159-14.313,36.341-12.604,49-27
	c8.974-10.204,15.555-25.776,22-40c10.774-23.778,15.464-43.604,13-78c-1.144-15.967-9.852-27.057-12-45
	c-1.459-12.181,0.264-24.466-4-36c-12.957,8.327-27.804,14.12-45,21c-3.871,1.549-7.363,4.951-11,6c-33.857,9.77-66.777-3.11-100-8
	c-7.424,27.771-2.818,62.162-7,95c-0.594,4.658-3.262,8.439-4,13c-3.215,19.851-2.467,41.394-1,59c0.473,5.67,4.071,12.081,4,18
	c-0.096,7.908-5.349,14.914-5,22c-13.465,2.514-38.535,8.159-47-2c4.564-13.488,19.125-12.206,26-22c9.129-13.006,8.939-48.021,6-70
	c-1.148-8.591-7.187-15.636-8-23c-1.494-13.526,5.308-29.04-2-38c-3.423,13.958-0.518,27.527-2,42c-0.532,5.195-3.098,9.594-4,15
	c-4.676,28.011-2.303,60.279-9,85c-14.68,4.295-40.351,15.853-53,4c6.695-14.86,25.106-7.758,34-20c4.466-6.147,5.678-18.015,7-28
	c1.239-9.353,4.752-21.842,4-30c-0.645-6.985-7.392-14.099-8-22c-0.602-7.813,3.185-15.104,4-23c2.746-26.603-8.609-49.334-13-76
	c-2.35-14.268,1.34-25.795-14-29c-24.417-5.101-45.25,13.304-67,1c-7.954-4.5-26.349-20.112-31-27c-4.734-7.011-2.809-13.558-9-19
	c-5.45-4.79-14.188-4.203-20-9c-1.42-1.172-5.988-6.501-7-9c-4.381-10.822,2.694-14.25,2-24c-0.526-7.391-7.587-8.319-12-14
	c-1.997-2.571-0.051-10.425-6-10c-1.232-2.828-1.232-6.172,0-9c-12.28-3.387-20.839-10.494-27-20c-7.167-1.167-12.715-3.952-15-10
	c0-0.667,0-1.333,0-2c2.532-3.785,17.692-16.892,22-18c5.944-1.528,12.776,0.974,19,0c12.583-1.97,23.281-10.005,35-10
	c12.646,0.005,24.438,8.746,34,8c4.881-0.381,8.718-5.701,14-5c11.447,1.52,13.651,22.008-2,20c9.77,25.597,2.021,63.348,21,77
	c15.262,10.979,35.523-4.345,44-13c7.887-8.053,12.889-15.624,21-24c14.116-14.577,27.33-25.586,53-30
	c17.045-2.931,31.506-1.674,39-9c4.823-4.715,5.707-13.069,11-18C448.109,69.319,462.402,68.653,473.947,62.718z"/>
</svg>
