<?xml version="1.0" encoding="utf-8"?>
<!-- Generator: Adobe Illustrator 23.0.0, SVG Export Plug-In . SVG Version: 6.00 Build 0)  -->
<svg version="1.1" id="图层_1" xmlns="http://www.w3.org/2000/svg" xmlns:xlink="http://www.w3.org/1999/xlink" x="0px" y="0px"
	 viewBox="0 0 1920 1080" style="enable-background:new 0 0 1920 1080;" xml:space="preserve">
<path d="M516.7,477.6c-27.5,0-49.9-22.4-49.8-49.8c0.1-27.5,22.5-49.7,50-49.5c27.4,0.1,49.4,22.2,49.5,49.6
	C566.6,455.3,544.2,477.6,516.7,477.6z M520.8,420.3c9.2,1.8,13.9,7.3,14.2,15.9c0.1,1.8-0.4,3.8,0.2,5.3c0.6,1.4,2.4,3,3.7,3
	c1.3,0,3.5-1.8,3.6-3c1.5-11.9-2.7-23-15.3-27.7c-2-0.8-4.2-1.2-6.4-1.8c0-2,0-3.8,0-6.1c4.1,0,8,0,11.8,0c2.9,0,5.6-0.6,5.5-4.1
	c-0.1-3.4-2.7-3.6-5.4-3.6c-11,0-21.9,0-32.9,0c-2.7,0-5.3,0.3-5.3,3.7c0,3.5,2.7,4.1,5.6,4c4-0.1,8,0,12.2,0c0,2.3,0,4.2,0,6.2
	c-1.2,0.3-2.2,0.5-3.3,0.8c-12.8,3.3-20.4,14.5-18.8,27.5c0.3,2.5,1.5,4.3,4.2,4.2c2.6-0.1,3.9-1.8,3.9-4.4c0-2.1,0-4.2,0.2-6.2
	c0.7-7.4,8-14.1,14.1-13.3c0,9.1,0,18.3,0,27.4c0,2.1-0.5,4.3,0.2,6.2c0.6,1.6,2.2,3.6,3.8,3.9c2.6,0.7,3.9-1.5,4.1-4
	c0.1-1.2,0-2.5,0-3.7C520.8,440.6,520.8,430.6,520.8,420.3z"/>
</svg>