<?xml version="1.0" encoding="utf-8"?>
<!-- Generator: Adobe Illustrator 15.0.0, SVG Export Plug-In . SVG Version: 6.00 Build 0)  -->
<!DOCTYPE svg PUBLIC "-//W3C//DTD SVG 1.1//EN" "http://www.w3.org/Graphics/SVG/1.1/DTD/svg11.dtd">
<svg version="1.1" id="图层_1" xmlns="http://www.w3.org/2000/svg" xmlns:xlink="http://www.w3.org/1999/xlink" x="0px" y="0px"
	 width="841.89px" height="595.28px" viewBox="0 0 841.89 595.28" enable-background="new 0 0 841.89 595.28" xml:space="preserve">
<path fill-rule="evenodd" clip-rule="evenodd" fill="#FFFFFF" d="M295.098,25.568c-5.747,0.28-7.54,5.14-12.111,5.792
	c-4.037,0.576-8.034-1.728-11.584-2.106c-8.892-0.947-19.042-0.072-26.328,2.633c-16.565,6.149-23.916,27.641-38.965,34.226
	c-0.835,3.159,1.906,4.813,1.053,6.319c-11.04,5.628-19.392,16.591-19.482,30.541c-0.028,4.238,1.833,9.439,2.632,14.744
	c0.797,5.286,0.989,10.943,2.106,15.796c3.586,15.575,12.235,31.128,1.053,41.598c0.262,2.02,3.893,0.67,3.686,3.16
	c-4.616,15.936,21.062,16.398,17.376,31.593c-0.567,2.339-3.574,5.213-6.845,4.212c1.267,6.042,9.307,6.84,15.271,5.266
	c-0.178,9.125-2.479,16.127-3.16,24.749c-1.088,1.276-2.929-1.471-4.212,0c-10.1,9.559-11.26,30.864-27.381,32.646
	c-1.239,1.962,2.837,3.114,3.159,5.266c-22.328,28.749-36.965,65.187-37.912,115.316c0-123.919,0-247.828,0-371.75
	C200.668,25.568,247.882,25.568,295.098,25.568z"/>
<path fill-rule="evenodd" clip-rule="evenodd" fill="#FFFFFF" d="M153.453,397.845c0.877,5.445,0.877,14.564,0,20.01
	C153.453,411.185,153.453,404.515,153.453,397.845z"/>
<path fill-rule="evenodd" clip-rule="evenodd" d="M333.049,74.568c12.819,4.543,26.538,1.654,38.965,2.106
	c8.752,0.318,10.203,5.251,17.376,8.951c4.24,2.187,10.299,2.172,13.69,4.739c3.4,2.573,6.237,8.142,9.478,11.584
	c5.572,5.917,10.998,7.077,13.164,14.217c0.625-2.008,2.469-2.797,3.687-4.212c-0.638,2.3-1.995,2.254-2.106,4.739
	c-0.162,3.623,3.861,6.642,3.16,10.005c-0.79,3.78-4.947,4.961-11.059,4.739c3.516,10.958,0.254,26.571,2.106,38.965
	c0.428,2.863,1.982,5.693,1.579,7.898c-1.222,6.696-11.909,7.762-10.004,15.797c0.324,1.888,3.544,0.875,4.738,0.526
	c-0.826,1.28-2.24,1.973-4.212,2.106c0.534,11.537,7.024,24.526,8.952,32.12c1.363,5.375-0.583,9.792-5.793,10.531
	c-1.666,0.236-3.948-1.289-6.318-0.527c-4.269,1.374-3.973,6.757-4.213,12.638c-1.379,2.693-6.509,1.881-8.951,2.106
	c-1.15,3.611,4.093,4.01,4.212,7.898c0.112,3.661-3.303,5.524-6.319,6.319c2.611,19.455-5.345,28.17-23.695,26.854
	c-11.546-0.828-24.327-8.612-33.7-7.898c-6.911,0.526-9.964,9.725-9.478,18.43c0.291,5.203,3.781,9.146,3.159,14.217
	c-0.636,5.191-4.87,7.695-5.792,13.69c7.381,5.519,14.827,9.073,18.429,17.902c2.684,6.578-1.277,17.984,6.846,19.483
	c-1.035,1.948-3.458,2.509-5.792,3.159c25.71,23.308,32.128,69.127,34.227,115.316c0.265,5.835-1.747,16.107,0,22.115
	c1.765,6.071,14.612,11.647,17.903,16.85c6.072-2.528,11.233-5.967,16.85-8.951c13.24-36.297,48.199-53.948,64.24-89.515
	c2.558-5.67,4.337-12.443,6.846-18.956c2.211-5.74,5.993-13.087,6.318-18.956c0.352-6.354-1.945-14.354-3.159-21.59
	c-3.156-18.805-6.584-47.746-18.956-57.395c-10.449-8.148-40.406-0.563-42.651-16.85c-1.009-7.314,2.703-10.479,4.739-16.323
	c-4.25-4.199-0.71-9.592,3.159-11.584c-0.198-2.961-5.792-0.527-5.792-3.686c-0.121-4.74,3.035-3.614,3.686-6.845
	c1.62-8.047-8.742-9.827-8.951-17.376c10.845-7.409,23.219-13.29,27.907-26.854c0.615-2.349-3.938-3.671-3.159-7.898
	c1.94,1.044,1.903,4.064,4.213,4.739c2.035-4.548-1.261-9.217,0-14.744c0.725-3.178,4.354-4.862,6.318-7.898
	c7.216-11.159,8.191-29.073,18.43-36.859c1.981-0.476,3.405-1.509,5.792-1.58c-2.623-6.289-2.739-16.013,3.159-18.956
	c7.922-0.718,19.237,5.319,22.115-2.633c0.006-3.555-6.136-3.254-6.845-0.526c-1.683-2.834,6.35-3.729,7.372-1.053
	c-0.528,15.215-32.675-3.756-24.222,17.376c9.321-7.211,32.13-15.239,50.022-14.217c21.479,1.227,45.663,14.216,62.134,24.749
	c27.11,17.335,42.227,43.244,53.183,78.457c3.442,11.063,5.974,22.414,11.584,32.12c6.086,10.528,11.663,18.237,15.797,27.908
	c5.399,12.629,4.269,26.604,6.319,43.178c0.777,6.29,6.349,6.334,10.531,9.478c7.62,5.729,7.575,15.081,8.951,26.854
	c0.929,7.947,3.574,16.738,13.69,16.323c-5.206,2.978-11.356-0.944-12.638-5.266c-4.997-0.862-9.977-1.927-11.584-5.792
	c-2.625-6.312,1.749-14.478-7.372-16.323c-6.122-1.239-16.408,3.779-18.956-4.213c-0.584,15.616,15.332,15.47,23.695,24.222
	c3.454,3.614,7.339,9.338,7.898,16.323c0.905,11.293-7.432,14.658-7.372,25.275c0.067,11.999,13.392,20.007,23.169,12.638
	c-2.833,7.471-18.176,6.778-24.748,1.053c-6.104-5.317-5.648-15.469-11.585-20.536c-0.443,7.052-4.349,12.95-2.633,18.956
	c2.34,8.191,10.474,9.028,11.585,18.43c0.18,1.527,0.111,3.182,0,4.739c-0.425,5.937-5.608,13.988,1.579,17.376
	c-8.789-1.392-6.944-17.979-16.323-20.535c1.064,3.332,4.579,5.164,3.687,11.058c-1.142,7.527-7.544,5.859-13.691,10.005
	c-4.367,2.945-2.567,7.988-5.266,11.584c-3.738,2.124-8.612,0.098-12.637-0.526c11.122,0.988,10.713-17.041,5.266-23.169
	c-9.557-10.751-32.209-7.059-32.12-25.274c-5.046,8.337,4.81,11.771,9.478,15.27c5.663,4.246,11.166,8.429,13.164,14.744
	c-0.226,3.233-2.989,2.292-3.686,5.266c-0.504,2.149,0.941,4.456,0.526,6.845c-0.738,4.245-3.854,6.082-7.898,7.372
	c2.398-3.014,5.683-3.538,5.792-7.898c0.342-13.624-30.582-9.695-32.646-22.642c-1.299,5.199,3.532,11.316,2.633,16.85
	c-1.042,6.413-14.345,13.604-20.536,16.85c-24.918,13.063-54.288,21.235-81.616,30.541c-38.603,13.144-75.354,26.997-106.892,42.651
	c-44.107-26.094-103.604-43.478-158.494-62.134c-20.794-7.068-43.906-14.888-54.235-31.594c0-1.054,0-2.106,0-3.159
	c0.877-5.445,0.877-14.564,0-20.01c0-0.176,0-0.351,0-0.526c0.947-50.13,15.584-86.567,37.912-115.316
	c-0.322-2.151-4.398-3.304-3.159-5.266c16.121-1.782,17.281-23.088,27.381-32.646c1.284-1.471,3.124,1.276,4.212,0
	c0.681-8.622,2.982-15.624,3.16-24.749c-5.964,1.575-14.004,0.777-15.271-5.266c3.271,1.001,6.278-1.873,6.845-4.212
	c3.686-15.195-21.992-15.658-17.376-31.593c0.207-2.489-3.424-1.14-3.686-3.16c11.182-10.47,2.533-26.023-1.053-41.598
	c-1.118-4.853-1.309-10.511-2.106-15.796c-0.799-5.304-2.66-10.505-2.632-14.744c0.09-13.95,8.442-24.912,19.482-30.541
	c0.853-1.506-1.888-3.16-1.053-6.319c15.049-6.585,22.4-28.077,38.965-34.226c7.286-2.705,17.436-3.58,26.328-2.633
	c3.55,0.378,7.547,2.682,11.584,2.106c4.571-0.652,6.365-5.512,12.111-5.792C327.081,74.568,330.065,74.568,333.049,74.568z"/>
</svg>
