<?xml version="1.0" encoding="utf-8"?>
<!-- Generator: Adobe Illustrator 15.0.0, SVG Export Plug-In . SVG Version: 6.00 Build 0)  -->
<!DOCTYPE svg PUBLIC "-//W3C//DTD SVG 1.1//EN" "http://www.w3.org/Graphics/SVG/1.1/DTD/svg11.dtd">
<svg version="1.1" xmlns="http://www.w3.org/2000/svg" xmlns:xlink="http://www.w3.org/1999/xlink" x="0px" y="0px"
	 width="595.28px" height="841.89px" viewBox="0 0 595.28 841.89" enable-background="new 0 0 595.28 841.89" xml:space="preserve">
<g id="图层_2">
</g>
<g id="图层_1">
	<path fill-rule="evenodd" clip-rule="evenodd" d="M131.25,106.25c-2.734-9.938-13.59-17.069-11-29c3.208,6.792,6.917,13.083,12,18
		c9.434-2.233,8.116-15.217,14-21c0.084,5.417-2.353,8.314-2,14c0,0.333,0,0.667,0,1c-2.233,4.119-3.113,14.862-1,20
		c0,0.333,0,0.667,0,1c0.083,1.583-0.481,3.814,1,4c-0.101,3.101,1.223,4.777,2,7c2.129,5.871,4.677,11.323,9,15
		c-2.316-11.509-2.926-28.389-1-41c0-0.333,0-0.667,0-1c4.987-1.071-0.413,16.23,3,20c0,0.667,0,1.333,0,2
		c0.609,2.391-1.255,7.255,1,8c0,0.333,0,0.667,0,1c-0.166,3.499,0.266,6.401,2,8c0,0.333,0,0.667,0,1
		c5.119,14.548,18.023,21.31,32,27c0.334,0,0.666,0,1,0c0,0.333,0,0.667,0,1c1.891-0.224,2.207,1.127,4,1
		c-0.445-2.555-1.402-4.598-3-6c0-0.333,0-0.667,0-1c-1.844-5.156-2.836-11.164-5-16c0-0.333,0-0.667,0-1
		c0.619-2.714-1.27-7.936,1-9c-0.162,1.163,0.221,1.779,1,2c0.156,1.177-0.172,2.838,1,3c0,0.333,0,0.667,0,1
		c4.189,11.145,7.121,23.546,19,27c1,0,2,0,3,0c5.58-0.42,7.859-4.141,9-9c0-0.333,0-0.667,0-1c1.646-0.136,1.646-6.864,0-7
		c0-0.333,0-0.667,0-1c0.074-3.74-0.421-6.913-2-9c0-0.333,0-0.667,0-1c0.225-4.225-1.541-6.458-2-10c4.049,1.618,3.928,7.405,7,10
		c0,0.333,0,0.667,0,1c0.105,2.561,0.566,4.767,2,6c0,0.333,0,0.667,0,1c0.9,3.767,0.298,9.035,2,12c0,0.667,0,1.333,0,2
		c-0.311,4.336-7.47,9.573-8,14c-0.848,7.08,2.723,13.847,9,14c8.246,0.201,12.783-13.754,20-21c0-0.333,0-0.667,0-1
		c9.623-12.377,18.139-25.862,29-37c0-0.333,0-0.667,0-1c0.334,0,0.666,0,1,0c0.521-1.479,1.479-2.521,2-4c0-0.333,0-0.667,0-1
		c2.307,0.306,1.111-2.889,3-3c-2.455,18.545-17.041,24.959-23,40c0,0.333,0,0.667,0,1c-3.811,0.576,3.895,2.34,3,0
		c0.334,0,0.666,0,1,0c2.483,0.15,4.15-0.517,5-2c0.334,0,0.666,0,1,0c15.086-4.581,23.205-16.128,26-33
		c-4.549-1.14-11.135-5.502-10-9c3.402,1.108,12.297,10.561,13,2c0-0.333,0-0.667,0-1c1.547-1.453,2.1-3.9,2-7c0-0.333,0-0.667,0-1
		c1.621,0.715,1.621-4.715,0-4c0-0.333,0-0.667,0-1c-3.637-4.03-7.123-8.21-10-13c0-0.333,0-0.667,0-1c0.578-2.672-2.958-6.248,0-8
		c3.459,7.875,7.74,14.927,16,18c0.334,0,0.666,0,1,0c6.801-2.2,10.566-7.433,13-14c0-0.333,0-0.667,0-1
		c1.322-0.012,0.914-1.753,2-2c0.225,0.776,0.027,1.973,1,2c0,1.333,0,2.667,0,4c-1.357,0.31-0.83,2.504-1,4
		c-0.521,1.479-1.479,2.521-2,4c0,0.333,0,0.667,0,1c-5.619,4.714-11.07,9.596-14,17c0,0.333,0,0.667,0,1
		c-1.971,1.696-2.683,4.65-3,8c0,0.333,0,0.667,0,1c-2.379,3.621-2.951,9.049-4,14c0,0.333,0,0.667,0,1c-0.334,0-0.666,0-1,0
		c0.594,3.19-1.877,3.093,0,5c6.393-1.607,10.682-5.319,14-10c0-0.333,0-0.667,0-1c2.529-0.803,2.551-4.117,4-6c0-0.333,0-0.667,0-1
		c2.827-2.506,3.173-7.494,6-10c0.688,4.021-0.958,5.708-1,9c-0.314,1.352-1.424,1.91-1,4c-1.598,1.402-2.555,3.445-3,6
		c0,0.333,0,0.667,0,1c-2.928,4.072-6.324,7.675-10,11c-0.334,0-0.666,0-1,0c-2.506,1.827-6.586,2.081-8,5c-0.334,0-0.666,0-1,0
		c-4.559,1.442-8.563,3.437-12,6c-0.334,0-0.666,0-1,0c-8.902,3.765-19.293,6.041-26,12c-0.334,0-0.666,0-1,0
		c-6.031,3.636-13.315,6.018-15,14c3.419,1.039,7.294-5.097,12-6c0.334,0,0.666,0,1,0c3.523-1.144,7.135-2.198,9-5
		c0.334,0,0.666,0,1,0c3.109-0.891,4.658-3.341,8-4c0,0.667,0,1.333,0,2c-0.314,1.352-1.424,1.91-1,4c-0.314,1.352-1.424,1.91-1,4
		c-1.342,0.658-1.862,2.138-2,4c0,0.333,0,0.667,0,1c-4.868,5.799-8.265,13.069-18,14c0.156,1.177-0.172,2.838,1,3
		c0,0.333,0,0.667,0,1c1.387,0.614,0.15,3.85,2,4c0,0.333,0,0.667,0,1c2.683,7.651,8.672,11.995,12,19
		c-0.18,7.82-4.813,11.188-10,14c-0.334,0-0.666,0-1,0s-0.666,0-1,0c-1.213-0.307-3.448,2.889-1,3c0,0.334,0,0.666,0,1
		c1.725,15.275,17.396,16.604,23,28c5.974,1.693,9.938,5.395,17,6c0.334,0,0.666,0,1,0c0.31,1.357,2.504,0.83,4,1
		c0.334,0,0.666,0,1,0c0.431,2.236,4.928,0.405,7,1c1,0,2,0,3,0c7.674,2.326,19.661,0.339,29,1c0.334,0,0.666,0,1,0
		c1.064,2.27,6.286,0.381,9,1c0.334,0,0.666,0,1,0c0.125,2.209,4.242,0.425,6,1c0.334,0,0.666,0,1,0c0.31,1.357,2.504,0.83,4,1
		c1.352,0.314,1.91,1.424,4,1c8.012,4.321,14.878,9.789,20,17c0,0.334,0,0.666,0,1c1.824,4.51,1.898,10.768,5,14
		c0,0.334,0,0.666,0,1c0.018,1.668,3.253,7.302-1,7c-0.334,0-0.666,0-1,0c-1.091-1.004-4.909-4.297-6-2c2.715-0.715-0.715,4.715,2,4
		c0,0.334,0,0.666,0,1c0,7.666,0,15.334,0,23c0,0.334,0,0.666,0,1c-1.664,5.352-1.664,17.648,0,23c0,0.334,0,0.666,0,1
		c0.773,6.561,7.557,7.109,10,12c0,1.334,0,2.666,0,4c-2.168-0.168-0.453,3.547-1,5c-0.84,1.16-1.318,2.682-1,5
		c-1.974,2.359-2.355,6.311-3,10c-0.84,1.161-1.318,2.681-1,5c-3.036,6.631-4.629,14.705-6,23c0,0.333,0,0.667,0,1
		c-1.357,0.31-0.83,2.504-1,4c0,0.333,0,0.667,0,1c-2.28,1.387-0.373,6.961-1,10c0,0.667,0,1.333,0,2
		c-1.797,4.811-1.516,5.259-1.25,9.75c0.117,1.979-0.865,3.957-0.103,5.229c2.25,3.75,2.103,6.771,2.853,8.771
		c0.481,1.284-5.698,5.899-7.738,7.267c-3.017,2.021-6.359,3.664-7.012,2.983c-1.522-1.587,2.254-4.401-0.133-5.283
		c-1.309-0.483-2.853,1.842-4.367,2.533s-3-0.25-3-0.25c-2.25-0.5,2.5-7.5,2.5-7.5c-0.912-0.456-3.793,1.58-5,2.5
		c-2.104,1.603-2.662,2.726-4.25,2.25c-1.408-0.422,0.646-4.902,0.496-6.613c-3.75-2-6.996,5.613-4.996-2.637
		c3.533-5.333,3.533-5.333,5.92-7.79c4.33-4.46,4.11-13.416,5.08-21.21c0.84-1.161,1.318-2.681,1-5c1.357-0.31,0.83-2.504,1-4
		c0-0.333,0-0.667,0-1c1.357-0.31,0.83-2.504,1-4c0-0.333,0-0.667,0-1c2.168,0.169,0.453-3.547,1-5c0-0.333,0-0.667,0-1
		c2.256-0.745,0.391-5.609,1-8c0-0.667,0-1.333,0-2c1.641,0.164,1.641-6.164,0-6c0-0.334,0-0.666,0-1c0.049-3.049-0.908-5.092-3-6
		c0-0.334,0-0.666,0-1c-3.332-4.668-6.184-9.816-11-13c-1.278-0.055-1.385-1.281-3-1c-9.369-4.969-17.898-16.096-25-20
		c-1.742-0.075-3.11,0.223-4,1c-2.611,0.389-5.486,0.514-7,2c-0.334,0-0.666,0-1,0c-1.584,0.083-3.814-0.48-4,1
		c-0.334,0-0.666,0-1,0c-2.391,0.609-7.256-1.256-8,1c-1.334,0-2.666,0-4,0c-2.334,0-4.666,0-7,0c-1,0-2,0-3,0
		c-0.221-0.779-0.838-1.162-2-1c-3.533,5.467-5.576,12.424-6,21c0,0.334,0,0.666,0,1c-1.658,1.725-1.658,10.275,0,12
		c0,0.334,0,0.666,0,1c0.547,1.453-1.168,5.169,1,5c0,0.333,0,0.667,0,1c1.026,6.974,2.31,13.69,5,19c0.17,1.496-0.357,3.69,1,4
		c0,0.333,0,0.667,0,1c1.582,7.084,3.041,14.292,7,19c-0.826,2.826,1.409,2.591,1,5c-1.633-0.45-1.633,5.45,0,5c0,0.333,0,0.667,0,1
		c-0.279,9.947,0.848,16.747-5,19c0.426-0.164-6.051-5.034-7-1c-5.07-7.503-0.199-20.268-5-29c0-1,0-2,0-3
		c0.234-7.901-1.443-13.89-4-19c0.075-1.742-0.223-3.11-1-4c-0.473-12.527-6.978-19.022-11-28c0-1.334,0-2.666,0-4
		c1.664-5.02,1.664-16.98,0-22c0-0.334,0-0.666,0-1c0.132-2.465,0.151-4.818-1-6c-2.334,0-4.666,0-7,0c0,2,0,4,0,6
		c0,0.334,0,0.666,0,1c-1.357,0.31-0.83,2.504-1,4c0,0.334,0,0.666,0,1c-1.486,1.514-1.611,4.389-2,7c0,0.334,0,0.666,0,1
		c-2.064,2.936-2.789,7.211-4,11c0,0.334,0,0.666,0,1c-6,8.667-9.606,19.727-9,35c0,0.667,0,1.333,0,2
		c-1.665,7.013-1.665,20.987,0,28c0,0.333,0,0.667,0,1c-0.066,5.934-4.619,7.381-3,15c0,0.333,0,0.667,0,1
		c1.519,6.795-9.75,10.5-16.25,10.25c-2.754-0.105,2.964-3.745,0.258-4.459c-3.625-0.956-5.021,1.854-5.008,0.209
		c0.051-6.367,7.4-8.823,9-15c1.207-4.66-1.804-6.784,0-12c0-0.333,0-0.667,0-1c1.717-2.95,2.121-7.213,2-12c0-0.667,0-1.333,0-2
		c1.611-10.952,2.105-29.434-1-39c0-1,0-2,0-3c2.209-0.125,0.425-4.242,1-6c0-0.334,0-0.666,0-1c1.656-1.4,1.656-9.6,0-11
		c0-0.334,0-0.666,0-1c-0.575-1.758,1.209-5.875-1-6c0-0.334,0-0.666,0-1c-0.923-18.744-13.297-26.037-19-40c0-0.334,0-0.666,0-1
		c-0.661-2.672-0.419-6.248-2-8c0-0.334,0-0.666,0-1c1.314-19.314-3.407-32.593-2-52c0-0.334,0-0.666,0-1
		c1.994-2.673,0.517-8.816,2-12c0-0.334,0-0.666,0-1c1.48-0.186,0.916-2.416,1-4c2.289-1.711,0.367-7.633,1-11c0-0.334,0-0.666,0-1
		c2.236-0.431,0.405-4.928,1-7c0-0.334,0-0.666,0-1c1.67-5.099,2.651-12.422,1-18c0-0.333,0-0.667,0-1
		c0.439-3.487,0.265-11.966,2-17c0.055-1.278,1.281-1.385,1-3c-0.453-4.562-10.75-7.904-13-14c0-0.333,0-0.667,0-1
		c-0.138-1.862-0.658-3.342-2-4c0-0.333,0-0.667,0-1c0.043-1.376-0.471-2.196-1-3c0.275-1.753-2.816-4.99,0-6
		c2.283,3.383,5.526,5.807,10,7c0.334,0,0.666,0,1,0c2.269,2.065,6.622,2.044,9,4c0.334,0,0.666,0,1,0c-0.004,1.003,0.811,1.19,1,2
		c3.68-3.898-6-11.172-12-12c-0.334,0-0.666,0-1,0c-3.353-1.981-7.378-3.289-12-4c-0.334,0-0.666,0-1,0
		c-20.927-9.74-36.969-24.364-48-44c-9.088,1.408-17.051-3.598-16-9c3.607,2.06,6.007,5.326,12,5c2.141-4.52-2.338-10.052-5-13
		C131.25,106.917,131.25,106.583,131.25,106.25z"/>
</g>
</svg>
