<?xml version="1.0" encoding="utf-8"?>
<!-- Generator: Adobe Illustrator 23.0.0, SVG Export Plug-In . SVG Version: 6.00 Build 0)  -->
<svg version="1.1" id="图层_1" xmlns="http://www.w3.org/2000/svg" xmlns:xlink="http://www.w3.org/1999/xlink" x="0px" y="0px"
	 viewBox="0 0 1920 1080" style="enable-background:new 0 0 1920 1080;" xml:space="preserve">
<path d="M900.4,465.6c0.8-5.2,1.6-11,2.7-16.7c1.5-7.4,0-13.6-5.9-18.8c-4-3.5-7.5-7.4-11-11.3c-4.7-5.2-2.9-10.9,4-12.3
	c5.8-1.2,11.7-2,17.6-2.9c5.6-0.9,9.3-4.2,11.6-9.1c2.3-5,4.5-10.1,6.9-15.2c1.3-2.9,3.3-5.1,6.9-5.2c3.7-0.1,5.5,2,6.9,5
	c2.5,5.3,5,10.5,7.5,15.8c2.3,4.9,6,7.9,11.4,8.7c5.2,0.8,10.4,1.6,15.6,2.4c3.5,0.6,6.9,1.2,8.2,5.2c1.2,3.8-0.9,6.3-3.3,8.8
	c-3.8,3.9-7.4,7.9-11.3,11.6c-4.5,4.2-5.8,9.3-4.7,15.2c1,5.5,2,10.9,3,16.4c0.7,3.5,0.5,6.7-2.6,9c-3,2.2-6,1.2-9-0.4
	c-4.5-2.5-9-4.8-13.5-7.4c-5.2-2.9-10.3-2.8-15.4,0c-5,2.7-9.9,5.6-15,8.1C905.4,475.2,900.3,472,900.4,465.6z"/>
</svg>