<?xml version="1.0" encoding="utf-8"?>
<!-- Generator: Adobe Illustrator 23.0.0, SVG Export Plug-In . SVG Version: 6.00 Build 0)  -->
<svg version="1.1" id="图层_1" xmlns="http://www.w3.org/2000/svg" xmlns:xlink="http://www.w3.org/1999/xlink" x="0px" y="0px"
	 viewBox="0 0 1920 1080" style="enable-background:new 0 0 1920 1080;" xml:space="preserve">
<path d="M112.7,406.8c8.6,0,16.6,0,24.6,0c10.2,0,14.3,5.7,11.4,15.5c-3.5,11.4-6.9,22.8-10.4,34.2c-2.7,8.8-8,12.7-17.2,12.7
	c-13.9,0-27.7,0-42.1,0c-0.1-1.7-0.3-3.1-0.3-4.6c0-17.9-0.1-35.8,0.1-53.7c0-2.1,1-4.5,2.3-6.3c4.6-6.1,9.5-11.9,14.4-17.8
	c3.2-4,7.5-5.4,11.8-3.9c3.8,1.4,6.1,5.3,6,10.4C113.1,397.6,112.9,401.9,112.7,406.8z M71.3,406.8c-2.7,0-5.1-0.1-7.4,0
	c-8,0.5-13.4,4.9-13.6,11.9c-0.3,12.9-0.3,25.8,0,38.7c0.1,6.3,4.8,11.4,10.3,11.7c3.4,0.2,6.9,0,10.7,0
	C71.3,448.1,71.3,427.6,71.3,406.8z"/>
</svg>