<?xml version="1.0" encoding="utf-8"?>
<!-- Generator: Adobe Illustrator 15.0.0, SVG Export Plug-In . SVG Version: 6.00 Build 0)  -->
<!DOCTYPE svg PUBLIC "-//W3C//DTD SVG 1.1//EN" "http://www.w3.org/Graphics/SVG/1.1/DTD/svg11.dtd">
<svg version="1.1" id="图层_1" xmlns="http://www.w3.org/2000/svg" xmlns:xlink="http://www.w3.org/1999/xlink" x="0px" y="0px"
	 width="595.279px" height="841.89px" viewBox="0 0 595.279 841.89" enable-background="new 0 0 595.279 841.89"
	 xml:space="preserve">
<g id="图层_2">
	<path fill="none" stroke="#000000" stroke-width="0.25" stroke-miterlimit="10" d="M312.473,287.446l6.402-0.442l8.062-0.558
		l7.047-1.661l10.989-2.589l9.149-4.284l2.601-1.216l-3.021,2.103l-3.563,2.48l-10.833,4.667l-14,3.333l-7.979,1.308l-2.188,0.359
		l1.27,1.143l2.063,1.857l6,5.167l-0.241,5.193l-1.092,8.474l0.909-5.907l0.424-7.76l1.298,4.401l2.536,8.599l0.833,13.167
		l-1.167,7.333l-1.75,4.862l-1.25,3.471l0.833-8.167l-0.667-7.5l-1.5-7.5l-3-5l-3.667-3.958l-6.166-3.875l-7.667-2.5l-9-0.333
		l-9.167,1.5l-6.166,3.333l-4.833,5l-3.333,4.667l-2.5,5.667l-1.333,5.333v6.667l0.583-3.873l0.709-4.71l2.25-6.25l3-4.875l4.875-4
		l5.125-2.75l5.375-1.625l7.5-0.625l7.875,1l8.374,3.374l6.375,5.5l3.625,5.625l1.75,6.25l0.25,7.25l-0.164,6.007l-0.295,3.617
		l-4.666,2.376l-5,3.75l-6.875-1.875l-7-0.625l-7.75,0.25l-5.375,0.875l-4.974,0.788l-3.651,2.087l3.651-2.087l4.974-0.788
		l-4.334-2.126l-6.916-4.374l-8.125-4.125l-5.5-0.625l-6.5,1l-8.25,2.75l-7.125,5.125l-2.959,3.124l-1.541,3.626l-1.5,4.625v10
		l2.125,5.125l-0.125,3l-1.125,3.75l-1.875,4.375l-1,5.875l-0.625,5.82v4.68l2.25,4.375l2.125,3.375l2.625,2.5l1,1.75v6.125
		l-0.625,5.126l0.5,4.125l2.375,4.75l2.625,2.375l2,2.75l2.5,3.068l1.875,4.182l1.75,6.25l3.75,4.125l5.125,4l8,1.75h14.25l16.125-1
		l12.25-2.875l12.625-6l7.875-10.432l3-7.068l-0.5-4l-1.5-3.75l-1.287-1.348l-3.167,2.354l-9.562,5.602l-7.094,3.041l-7.746,1.664
		l-8.886,0.834l-12.875,0.125l-7.344,0.105l-2.896,0.164l-4.27,1.086l4.916-1.25h6.334l8.875-0.25l9.75-0.125l8.125-0.875
		l7.125-1.75l8.375-3.875l8.375-5.25l5.375-4.375l3.75-3.377l2.5-5.5l-0.125-5.375l-1.625-5.25l-2.209-2.501l-2.875-1.125
		l-2.274,0.09l-2.392,1.661l-3.573,2.188l-5.352,2.715l-5.583,2.301l-5.867,2.421l-7.25,2l-6-0.125l-2.018-0.311l-7.813-1.089
		l-4.478-0.623l-6.386-0.971l-5.515-0.383l-6.875-0.375l-3.32-0.35l-4.596,0.601l4.596-0.601l4.75,0.5l5.445,0.225l4.459,0.251
		l4,0.5l5,0.875l6.25,0.75l6.5,1l6,0.125l7.25-2l7.875-3.25l6.375-2.625l6.125-3.75l4.5-3.125l3-3.875l1.5-4.25l0.125-4.75
		l-0.25-4.75l-1.5-4l-2-2.625l-1.125-0.75l-1.849-0.063l-6.398,3.187l-3.189,1.063l-6.371,1.304l-13.527,1.344l-6.164,0.165
		l-22.05-0.859l-7.135-1.653l-3.904-1.148l-6.431-2.834l-5.078-2.92l-3.403-2.334l4.375,3l6.375,3.5l8.065,2.737l7.135,1.653
		l8.088,0.315l11.007,0.429l9.625-0.053l13.021-1.341l6.37-1.304l6.818-2.624l6.494-3.814l5.875-4.25l9.625-5.625l5.5-5.375
		l1.875-3.875v-3.25l-2.625-2.625l-4.625-1.375l-3.125-0.5l-4.875,0.375l-2.25,0.875l-3.875,3.5l-1.5,0.75l1.5-0.75l3.875-3.5
		l2.25-0.875l-1-1.25l-2.485-1.25h-4.64l-4.52,0.608l-4.596,0.984l-3.054,1.28l0.59-2.33l2.578-4.793l1.756-3.335l0.744-1.415h5.25
		l5.89-0.25l4.36-2.375l5.08-3.58l5.92-4.17l6.492-4.827l7.633-5.673l5.625-5.25l5.094-5.438l4.156-4.437l3.396-4.33l4.354-5.545
		l5.75-9.625l5.625-13.25l2.453-14.526l0.987-8.641l0.31-2.708h1.875l4-2.125l3.25-5.25l1.75-5.125l2.375-4.375l1.75-3.912
		l2.625-4.713l1.25-4.5v-5.5l-1.625-4.5l-2.625-3.75l-3.875-0.875l-4.5,1.25l-2.875,1.75l-0.75,2.875l0.75,2.125l1.75-1.375
		l1.375-1.625l2-2.125l3.625-0.375l1.75,0.875l-3.75,0.5l-2.375,1.625l-1.875,1.875l-0.25,1.25l4.25-0.875h1l-2.875,1.375
		l-3.75,0.75l-1.25,2.75l-0.5,1.5l-0.125,0.375c0,0,1.5-1,1.875-1.25s2.125-1,2.125-1l1.75,0.25l1.5,1.875l0.75,3.25l-0.375,3.875
		l-0.625,3.25l-1.25,3.875l-1.875,3.875l-2.25,2.5l-1.5,1.875l-0.584,1.124l-1.291,0.751l0.114-2.623l0.261-6.002l0.875-5.625
		l1.625-2.5l3-2.875l-0.125-2.375l-2.25,1.875l-2,2.375l-1.375-0.5l0.208-1.244l0.292-1.756l0.625-8.125l0.5-6.625l-2-7l-3.75-7
		l-4.75-5.75l-2.875-2.625l4.125-1l-6.5-5.625l-1.25-1.125l9.375,2.625l-4.625-4l-3.125-1.375l-1.75-1.375l3.5-1.25l-3.75-2.25
		l-1.25-1.875l3.625-1.75l3-0.875l-5.375-5.625l-4.375-2.75l-3.625-1l6.625-2l2.375-1.125l-6.5-2.75l-4.875-2l-2.25-0.875
		l5.25-1.625l5-2l2.375-1.125l-5.25-3.125l-3.5-2.25l-5.125-3.125l-4.125-1.25l4.375-1h3.25l2.5-0.75l-3.375-1.875l-2.625-0.625
		h-4.625l-4.5,0.625l4.375-2.875l2.625-1.5l1-1.375l-3.125,0.875l-3.375,1.75l-2.25,0.5l1.5-2.25l1.875-2.375l-4.75,1.875l-2.125,1
		l1.5-3.5l-5.125,4.875l-1.875,5l0.375-7.5l-1.25-7.25l-2-6.193l0.75,9.693l0.25,8l1.5,10l-0.5,5.75l-3-7.25l-2.5-4l5.75,14.5
		l0.25,7v7l-0.5,9l-1.5,7.75l-2.5,7.5l-1.25,2.75l1-8.75l-0.834-5.917l-0.666-6.833l-2.166-3l1.666,7.667l0.166,6.167l-1.166,8.333
		l0.334,6.333l3.833-3.667l3.833-3.333l4.5-3l3.334-2.5l5.333-3l5.833-1.333l-7.333,4.5l-7.667,4l-2.166,2.833l-3.834,4
		l-5.833,5.167l-3.5,4.167l-4.667,6l1.712,6.782l1.579,6.257l2.045-3.582l2.164-3.791l2.834-2.5l-2.834,2.5l-4.209,7.373
		l1.209,4.126l1.166-2.667l1.834-3.667l2.834-3.333l3.5-3.333l2.333-2.333l7-3.667l4-2l6.5-2.167l3.5-0.5h3.167l-2.339,0.78
		l-2.661,0.887l-4.834,1.667l-2,1.833l3-0.5l5.5-0.333l2-0.167l6.666,0.667l1.5,0.167l-4.666,0.833h-5.334l-3.666,0.167l-3.334,1
		l-1.166,1l3.666-0.833h3.334l5.166,0.5l-4.155,0.489l-4.345,0.511l-4,0.833l-3.166,0.5l2.5,0.833l-3.834,0.5l-3.332-0.167
		c0,0-1.168,0.5-1.668,0.833s-5.166,2.5-5.166,2.5l-1.666,2l-1.167,1.833l-2,3.5l-0.833,2.5l-0.668,1.334l-2.5,2l-1.197-1.701
		l-1.969-2.799l-1.51-7.885l-1.49-7.782l-1.802,2.086l-1.365,1.581l1.705-4.127l1.462-3.54l2-7.167l0.834-5.333l0.166-5.333v-7.333
		l-0.334-6.333l-1.5-5.333l-1-6.833l-1.166-4.335v-6.5l-0.127-5.789l0.627-4.545l-0.627,4.545l0.127,6.33l-1.36,8.292l-0.807,6.834
		l-2,8.333l-1.5,4l-4,6l-1.667,4.167l-1.542,2.5l-7.458,10.667l-4.166,4.333l-4.667,5.333l-4.5,2.667l-4.167,2.667l-2.654,1.138
		l-3.179,1.362l3.295-2.929l5.705-5.071l5.5-6.167l4.333-6l2.833-6.167l4.667-9.167l1.797-3.333l2.661-6.167l1.792-5.917
		l1.917-6.916l1-5.5l0.667-6.333l-1.167-5.5l-0.5,8.5l-0.833,18.833l-0.167,4.167l-1,6.5l-1,4.333l-2.333,11.5l-2.167,8.167l-3,5.5
		l-3.333,5.833l-4,4l-1.5,1l1.407-2.463l1.26-2.204l2.833-5.166l1.167-5.333l1.667-9.833l0.167-5.5l0.667-9.5l-0.667-6.5
		l-0.501-11.834l-0.667-5.333l-0.5-2.333l0.735-1.394l2.098-4.316l1.375-3.75l0.814-3.477l0.936-3.992l0.173-4.906v-5.165l-0.964-7
		l0.099,8.666l0.067,5.875l-0.75,5.625l-1.125,4.625l-1.673,4.08l-3,5.833l-2.285,4.129l-2.5,6l-2.333,4.167l-4.667,4.167
		l-4.333,4.167l-5.167,3.333l-5.333,3.167l-5.5,3.333l-6.667,2.667l-8.167,3l-4.755,0.664l-2.412,0.336l3.179-1.801l6.821-3.866
		l6.833-4.833l6.833-6l6-7.667l5.167-9.833l2.833-4.667l2.5-4.833l2.833-8.333c0,0,0.833-5,0.833-5.667s-0.167-4.5-0.333-5.167
		s-1.5-8.333-1.5-8.333l-1.5-2.833l-1.665-1.334l-0.833,2.333l-0.667,4l0.333,7l-0.5,11l-0.333,5l-0.667,7.167l-3.166,12.167
		l-2.333,7.667l-1.667,4.833l-2.667,7.333l-1.833,5.167l-1.667,4.833l-2.333,5.833l-2.667,6.167l-3.667,4.667l-0.833,1.333
		l-0.5,1.667l5.333,1.333l2.5,1l-5.333-0.667l-3.333,0.334l-1.333,1.333l5.333,1.333l0.833,1.167l-3.333,0.333l1.667,1.167
		l1.333,1.167l1.833,1.833l0.5,1.338l0.333,1.662l-1.667-1.662l-1.5-1.671l-1.833-1.667l-2.667-0.833h-1.499l3.333,3.333
		l0.667,0.838l1.333,3.329l-0.5,1.167l-0.167,1.5l-1.166-2.334l-2-2.333l-5-4.667l-5-2.333l-2.167-0.333l1.44,1.061l1.727,1.272
		l1.5,2.667l1.5,4.167l0.667,3.5l0.333,2.833v2.666v2.5l-0.167,1.833l-0.5,2.833l-0.667,2.667l-1.5,2.5l-1.5,2l-2.667,2l-0.5,1.333
		l-1.167,1.167l1.168,0.667l2.333-0.5l1.333-1.833l1.833-1.5l3-1.5l-1.667,2.167l-1.167,1.333c0,0-1.167,1-1.5,1.5
		s-1.667,1.5-2.167,2s-2.834,1.166-3.5,1.333s-5.166,0.833-5.166,0.833l-2.332,0.167l-5.833-0.834l-2.333-1.167l-2-0.833l-1.167-1
		l3.333,0.334l2.167,0.333l2.5,0.333l3.5-0.5l1.167-1.333l-2.333-0.5l-3.667-0.667l-2.167-2.333l0.667-2.5l1.5-1.333l1-1.5
		l0.667-1.167l-0.167-2l-0.667-1.167l-0.833-1c0,0-2.5-1.333-3-0.833s-2.5,1-2.5,1l-1.333,1l-0.167,2.5l-3.293-3.084l-1.707-3.583
		l-1.668-2.417l-1.375-2.75l-0.125-3.625l0.168-3.208l1.313-2.811l2.52-2.523l2.5-1.5l5-1.167l5-0.667h3.874l3.745,0.177
		l1.715,0.156l-1.835-0.832l-3.882-0.782l-5.951,0.283l-7.5,1.667l-4,2l-2.666,2.333l-3,3.833l-3,4.667l-1,4.5v4.167l1.167,3.167
		l2.5,2.333l2.167,2l1.333,1.667v1l-1.334,0.333l-3.5-2.167l-2.333-2.5l-1-2.333l-1-1.5v3.333l1.333,3v2.333l-3.333-7.167v-3.166
		l-0.833-1.333l-0.834-0.167l1.167-2.5l1.167-2.167l1-3l-3.333-1.167l1.754-0.751l1.746-0.749l3.5-2.667l1.833-3.167l-1.334-0.165
		l-3,1.167l-2.199,0.698l-2.268,0.428l2.277-1.267l1.521-0.692c0,0,2-1,2.5-1.167s2.5-1.5,2.5-1.5l3-1.333l3.5-1.5l3-1.167
		l4.5-0.833l6.333-0.667l5.833-0.333l5.833-0.167l7-1l3.333-1.833l0.91-2.239l0.716-1.763l1.035,0.437l1.339,0.565l4.833,2.333
		l3.5,1.333l2.333,1.333l2.667,0.333l1.667-1.667l-1.167-2l-2.833-2l-2.5-1.167l-2-0.667l-3.833-2l-3.332-0.832l-4.333-1.333
		l-4.5-1.333l-2.833-1l-3.667-0.834l-2.833-0.667l-3.333-0.5h-2.167h-2l-3.334-0.166h-2.333l-2.667-0.167l4.667,1l3.167,0.667
		l3,0.333l3.667,1l4.634,1.883l4.013,1.349l3.796,1.482l3.225,1.287l2.124,0.998l0.542-2.165l1.833-4.833l1.667-5.5l0.833-5.333
		l0.167-2.167l0.333-4.833l0.5-8.167l1.167-9.833l0.5-10.5v-9.833v-6.5l-0.167-4.333l-0.666-4.335l-0.833-3.167l-0.667-2.667
		l0.333,6.5l-0.667,4.833l-0.833,4.334l-1.333,7.5l-2.5,6.5l-1.333,4.333l-3,5.667l-2.333,4.833l-2.667,3.667l-4.5,7l-3.167,4
		l-3.667,4.333l-2.5,3.667l-3.833,3.667l1.962-3.188l2.038-3.312l2.833-5l3-4.167l3.333-7.5l2.667-7.833l2.833-9.667l1.667-5.167
		l0.833-6.333l0.167-2.167l-2.5,8l-2.5,5.167l-2.833,5.833l-3.334,5.791l-3.25,5.125l-3.75,6l-3.999,6.418l-3.677,4.686
		l-3.084,3.915l-3.24,2.981l-3.125,2.875l-4.707,4.21l-4.797,2.914l0.853-3.907l1.251-4.146l1.193-3.807l1.773-5.657l1.482-6.317
		l1.526-6.302l1.144-4.495l1.409-4.782l1.833-6.5l2.333-3.667l2.5-3l-2.5,3l-2.333,3.667l-1.833,6.5l-1.167,3.833l-2.333,9.167
		l-1.833,8.167l-4.335,13.832l-2,9.167l-1.5,7l-1.167,7l-1.333,10.833v7.5l0.667,7.167l1.5,8.333l1.167,3.333l-3.334-3.166l-5.167-8
		l-4-8l-2.5-8.5l-1.5-8.833l-1.667-11l-1.333-10.333v-10.167v-5.667l1.333-6.667l1.5-9.833l2.334-10.167l1.833-6.5l2.667-6.5
		l3.167-5.833l3.5-7.5l3.833-6l5.167-6.833l1.295-1.772l1.872-2.561l-3.938,3.738l-2.562,2.429l-5.834,7.332l-3.167,7.333l-3,5.833
		l-3.333,6.833l-2.333,7.668l-2,9.5l-2.333,8.667l-2.5,13.167l-2.167,14.167l-1,12.167v8.667v7.833l-4.167-14l-2-8.5l-1.167-8.167
		l-1.167-9.167v-8.834l0.667-11.5l1.667-14.5l4-16.5l2.833-7.667l2.833-5.667l-7.167,15.167l-1,5l-1.832,6.167l-2,11l-1,7.167
		l-1.167,15.167l2.5,21.833l1.833,5.667l2.833,11.005l4,10.162l1.833,5.833l2.333,5.5l4.167,10l3.333,7.667l5.167,7.333l4.167,6.833
		l3.833,5.333l-2.499-8.5l-3-10l-2-7.167l-1.167-4.333l-1.833-13.667l-0.5-6.667v-5.5l-0.167-5.666l-0.667,9.667v5.167l0.667,9.667
		l-1.167,9l-1.667,13.333l0.167,13l-1,8.5l-0.916,11.666l-1,10l-0.25,5l-1.25-23.5l-1.5-12l-2.5-10.75l-2.75-6l-5-11l-3.75-8.5
		l-3.75-8.25l-2.5-6.333l-1.833-7.667l-1.333-8v-6.167l-1.833,6.333l-1,6l0.833,6.667l0.333,6l-2.5-12.167l-1.167-8.5v-9l1.667-11.5
		l-0.167-2.5l-2.667,6.667l-1,4.5v9l1.5,11.833l1.333,5.167l2.833,9l1.167,7.167l2.5,7l2,5.667l0.833,1.5l2.167,2.5l2.5,2.667
		l2.667,2.333l-3.833-1.667l-4.167-2.333l-5.5-5.333l-4.333-7.167l-4.167-9.167l-4.167-9.167l-2.333-9.833l-0.667-9.333l0.667-10
		l0.333-9.167l1.333-12.667l0.5-5l0.667-4.667l-1-1.5l-1.5,4.5l-2.833,4.667l-2,3l-2.167,3l-5,5.5l-5.333,2.5l-6,2l-9,2.5
		l-6.333,0.5l4.667-1.833l5.5-3l5.5-4.167l3.833-3.333l4.167-4.167l2.833-3.833l3.833-5l2.333-5.333l1.667-4.167l2.333-7
		l2.167-4.333l2.167-3.833l1.5-1.833h1.833l0.5,1.167l2.5,0.833l3.667,2.5l4.667,2.833l2.333,1.333l2.5,1l2.333,1.333l5.333-0.333
		l0.334-2.167l0.5-2.333l0.333-1.333l-3.667-1.167l-2.667-0.333l-2.333-1l-4.333-1.5l-1.5-1.333l-4.5-2.333l-2.333-1.833
		l-2.833-2.167l-1-1.333l-1.667-1.5l-1-0.333l-1.833,2.167l0.5,2.167l1.667,1.333l1.833,1.5l-0.167,1.331l-1.667-0.833l-2-1.833
		l-0.833-0.834l2.667-7.833l1.5-4.167l2-2.333l-2.333-1.333l-1.667-2.5l-1.167-4l-0.167-4.167l-1.583-1.417l6.25,0.083l7.277-0.627
		l8.389,1.127l8.5,1l8,1.167l4,0.667l2.333-0.333l-5.589-0.21l-6.568-0.974l-6.667-0.846l-8.174-1.305l-7.167-0.5l-5.333-0.667h-7.5
		h-5.333l-5.834-0.333l-3-1.167l-0.833-2.526l1.5-2.807l4-4l6.667-3.167l7.5-2.333l6.5-1.167l8.5-0.833h7.833h7.833l2.667-2l5-4.167
		l4.333-2.833l5.667-4l5-3l6.333-4.167l3.833-2.167l5-2.167l6-2.667l3.833-1.667l5.833-1.5l4.168-1.165l0.333-1.167l-3.5,0.833
		l-9.333,2.5l-10.833,5.167l-8.5,4.5l-7.334,4.667l-8.333,5.333l-6,4.667l-3.5,2.5l-2.333,1.333l-7.167,0.167l-3.833-0.167l-1.5-0.5
		l-0.167-2.833l-0.833-2.667l-1.833-2.667l-3.334-2.166l-2.833-1.167l-5-1.833l-4.333-0.167h-5l-4.833,0.5l-5.167,1.333
		l-3.167,2.167l-3.833,2.5l-1.667,3l-1,4.167l0.167,4l1.833,3.667l1.833,2.167l3.167,2.167l-2.071-2.466l-1.429-1.701l-1.667-3.334
		l-0.333-3l0.667-3.5l2.166-3.667l3.333-2.333l3-1l5-1.167h4.833l2.5,0.167l3.334,0.5l3,0.833l3.5,1.167l2.833,1.667l1.5,1.833
		l0.833,2.167l0.667,1.833l1.667-1.5l-0.167-3.5l-1.667-1.833l-2.667-1l-1.666-1.667l-5.667-1.833l-3.5-0.167l-2.167,0.667l-1.833-1
		l-2.166-0.167l-3.5,0.667l-3.833,0.333l8.333-4.167l0.333-3l-0.042-2.834l-0.436-3.121l0.145-2.378l0.5-2.5l2.541-0.001
		l1.875,1.125l0.917,1.876l0.708,2.249l-0.278,1.244l-0.263,1.174l0.263-1.174l0.278-1.244l-0.354-1.125l-0.354-1.125l1.375,0.404
		l1.458,0.429l2.667,1.667l1.333,2l0.667,2l0.667,4.833v1.833l0.415-4.869l0.252-2.964l0.833-3.5l1-3.833l1.167-3.167l2.5-1.667
		l2.667-1.833l4.167-1.167l3.129,0.67l3.871,0.83l6.667,2.667l5.167,1.667l2,0.833l3.333,1.833l2,1.833v2.333l-1.833,1l-2.914,0.567
		l-3.086,0.6l-3.835-0.499l-3.833-1.333l3.833,1.333l3.835,0.499l3.086-0.6l2.914-0.567l1.026-0.56l0.93,1.977l-0.291,2.417
		l-1.833,1.5l-8.167,1.5l-3.667,0.5l-3.5-0.167l-3.333-0.499l-3.333-1.5l-3-1.5l6.5,3.833l0.667,2.333l-0.834,3.167l-0.5,2.333
		l2.167-2.5l2.333-0.666l0.167-2.167l0.864-2.753l3.729-0.177l4.876-0.813l2.991-0.549l2.039-0.375l3.374-1.792l-1.373-6.875h3.373
		l5-0.25l3.5-1.25l1.792-1.832l0.833-1h-3h-2.166l-2.959-0.168l-2.541-0.999l-1.5-1.5l-1-1.333l-1-2l1,2l1,1.333l1.5,1.5
		l2.541,0.999l4.5,0.168h3.625l1.54-1.795l-0.206-2.038l-1.833-2.167l-4.251-2.668l-4.249-1.332l-2.167-1.167l-2.333-1.5
		l-3.167-1.667l-3.58-1.234l-3.629-1.225h-2.375l-3.916,0.792l-3.834,2.208l-1.75,2.625l-0.875,2.125l-0.25,2.625l0.25-2.625
		l0.875-2.125l1.75-2.625l3.834-2.208l3.916-0.792l3.918-4.375l2.667-2.167l4.332-2.332l5.167-1h3.167l4,1.667l3.667,2l2.833,2.5
		l0.5,1.5l2,2.167l1,1.833l1.333,2.667v2.666l-0.5,2l-2.333,2.167l-4.167-0.5l-1.959-0.918l-2-1.875l2,1.875l1.959,0.918l4.167,0.5
		l2.333-2.167l0.319-1.275l0.181-3.391l-1.333-2.667l3.999-0.167l4,1.333l1.833,1.5l0.668,1.667l-1,1.333l-3.834,1.667l-2.782,2.057
		l-3.884,3.609l-2.333,2.667l-2,2.667l-1.167,2.833l1.167-2.833l2-2.667l2.333-2.667l3.884-3.609l2.782-2.057l3.834-1.667l1-1.333
		l1.833-1.5l3.5-1.667l5.333-2.333l5.917-2l5-1.25l5.5-0.75h6.5l6.75-0.75l7-1l7.75-0.25l6,0.75l8,1l7.75,2l9.75,1.25l8,1.25
		l12.25,1l6.25,1.75l11.25,1.25l8,1.5l14.75,2.25l9.75,1l8.75,1.5l12.75,2.75l12.75,1.75l8,1.25l16.75,3.75l12.25,2.25l12.25,2.25
		l10.75,3l11.5,2.5l8.25,2.5l10.75,3.5l8.75,2.25l7,2.75l6.5,4l1.5,5.5l1.25,5.5v8.75l-3.25,6.25l-2.25,5.75l-0.75,6.75l-1,8l-1,7.5
		l-2.25,9l-2,10l-2.5,9.5l-2.25,8l-2.25,8.25l-2,8.5l-2.5,9.5l-2,8l-2,8.75l-2,5.75l-3.25,12.75l-1.25,6.25l-2.5,10l-1.5,9
		l-0.25,4.75l0.25-4.75l0.755-4.528l1.095-5.865l1.059-4.235l1.638-7.098l1.216-5.523l1.089-4.271l0.558-2.191l1.991,2.294
		l0.829,2.351l1.522,4.316l0.75,5.75c0,0,1.5,5.25,1.5,6.25s1.25,6.5,1.25,7.25s0.75,5.75,0.75,5.75s1.5,5,1.5,5.75s0.5,5.5,0.5,5.5
		l0.75,5.5l0.25,5l0.25,5.75l-0.25,8l-0.25,4.833l-0.25,3.917l-1.222-2.673l-2.778-6.077l-3.25-6.25l-4.5-7.5l-4.5-9.75l-3-4.5
		l-2.5-3.25l-4-5.5l-5.75-7l-5.5-7.125l-5-8.125l-3.25-6.25l-3.5-6.75l-2.75-6.75l-3.25-9.75l-2.75-10.5l-2-8.25l-1-8.5l-0.75-5
		l-0.5-4.5l0.75-4.75l4-1.75l3.049,0.39l-1.681,0.75l-0.951,1.652l1.083,2.708l-1.606,3.835l-0.744,1.774l-0.898,2.141l0.898-2.141
		l0.744-1.774l1.606-3.835l2.5-8.25l2.25-9l2.25-8l1.582-4.333l0.483-1.974l0.476-1.944l-0.459-2.082l1.168-1.167l4-1.5l3.491-0.982
		l3.604-0.87l3.235-0.647l1.717-0.072l2.283-0.095l-2.283,0.095l-1.717,0.072l-3.235,0.647l-3.604,0.87l-3.491,0.982l-4,1.5
		l-1.168,1.167l-2.292-0.655l-2.373-0.678l-5.5-1.833l-6.5-2l-10-2.167l-7.667-2l-8.167-2.667l-7-2l-9.5-3l-7.833-2l-6.167-2
		l-9-2.833l-11.5-4l-7-2.333l-9.5-3l-11-2.833l-10.5-2.167l-8.166-1.5l-8.833-1.833l-8-2.333l-7.667-1.167l-8.167-1.668
		l-5.333-0.833l-6.833-0.667l-4.667,0.167l-6.667,0.833l-5,1.5l-6.167,4.333l-5.333,2.833l-4.667,2l-6.166,2.834l-5.333,2.333
		l-5.667,3l-5.167,2.833l-4.833,3l-5.667,3l-5,2.5l-3.833,2.167l-3.417,1.75l-3.333,0.25l-4.5,0.25l-4.667-0.5l-5.667-0.667
		l-7.458-0.792l-4.75,0.125h-4.125h-7.5l-6.875,0.125l-2.25-0.875l-3.291-1.665l-1.667-2.5l-1.167-4l-0.167-4.167l-1.583-1.417
		l-1.5-0.375l-4.375-0.125l-4.25-0.375h-4.875l-1.125,0.5l-1,1.875l-0.625,1.5l-1.75,2.625l-2.625,2.625l-3.5,3l-4.75,2.75
		l-5.125,2.5l-4.25,1.5l-4,1.625l-5.25,1.625l-3.25,1.25l-2.375,1l-2.625,1l-4,0.5l6.125-0.125l3.25-0.5l5.125-1l4.125-1l4.25-1.125
		c0,0,2.75-1,3.125-1s5-1.75,5-1.75l3.5-1.5l4.25-2.25l4.375-1.875l3.5-2.125l3.125-2.375l2.375-1.25l-2.75,2.5l-5.875,3.875
		l-4.375,2l-4.5,2.5l-2.5,1.125l-3.625,1.375l-2.125,0.625l-2.5,2.375l-3.375,3.375l-3.125,2.875l-3,3.5l-2.875,3.375l-3.625,4.125
		l-2.125,4l-3,4.5l-2.125,4.875l-2,5.25l-1.875,5.375l-2.125,6.25l-1.75,5.5l-1.375,5.75l-1.125,6.5l-0.75,7.25v7.375l0.875,7.625
		l0.5,3.75l1.375,5.625l-0.125-6.5v-5l0.625-6.875l1.375-8l2.125-9l2.25-7.5l2.75-6.875l2.75-5.875l3-6l3.875-6.875l2.625-5l3.25-4
		l2.875-3.25l2.375-2.25l-5.25,7l-2.5,2.75l-2.875,6.375l-2.25,4.25l-1.375,1.875l0.375,3.75l-0.5,5.25v5.5l0.125,4.125l0.792,4.25
		l1.417,3.833l1,2.417l1.833,3.583l1.5,2.417l1.917,2.833l1.667,2.833l2.417,2.667l-2.25-4.583l-1.668-3.667l-0.917-3l-1.167-4.667
		l-0.5-3l-0.583-4.75l-0.25-3.417l-0.167-5.833l0.667-6.667l1.083-4.417l2-5.833l2.333-6.083l1.667-4.167l1.417-4l2.333-3.5
		l1.583-2.75l1.333-1.833l1.917-2.583l1.333-1.667l2.083-1.917l1.333-1l-2.5,3.833l-0.833,1.583l-1.417,3.167l-1.5,4.25l-1.083,3.5
		l-1.165,3.668l-1.417,3.583l-1,3.917l-0.833,2.917l-0.667,3.583l-0.333,3l-0.167,2.917l-0.167,3.417l0.083,4.25l0.084,2.916
		l0.167,2.75l1.917-0.417l2.833-1.5l2.5-2.667l1.667-2.333l2.333-3.666l2.167-3.667l1.5-3.333l1.333-3.5l1.833-3.833l1.5-3.667
		l1.333-2.833l1.167-2.833l-0.667,4l-1.667,3.375l-2,4.875l-2.875,6.125l-2.124,4.124l-2.125,3.5l-3.75,5.125l-3.5,3l-2.625,1.125
		l-1.75,0.625l-1.875,3.75l-2.25,3.375l-2.875,2.875l-2.625,3.25l-1.5,1.5l-1.125,1.5l-2.125,2.5l-2.625,2.625l-2.25,2.75
		l-3.375,2.625l-3.125,2.75l-1.75,1.125l-1.667,1.083l-3.333,1.917l-3.667,0.838c0,0-4.167,0.745-4.667,0.912
		s-5.916,0.417-5.916,0.417l-4.583,0.333l-2.917-0.25l-3.5-0.083l-2.667-0.25l2.917,1.583l3.583,0.917l2.75,0.5l2.667,0.417h3.167
		h3.667l3.667-0.25l2.083-0.25l-2,1l-3.083,1l-2.5,1.083l-3,1.25l-3.167,0.667l-3.084,0.416l-3.917,0.083l-3.75-0.167l-4.208-0.292
		l-4-0.625l4.625,2.125l3.25,1l4.5,0.626l4.875,0.25l4.375-0.25l3.25-0.5l6-0.875l4.375-1.5l4.5-1.875l5.25-2.375l5.125-2l4.625-2
		l3.75-2.5l3.388-2.02l3.112-1.855l3.875-2.25l4-3l1.603-1.151l2.397-1.724l1.75-1.625l-1.75,1.625l-2.397,1.724l-2.336,1.701
		l-3.267,2.45l-2.183,1.268l-1.498,1.972l-1.653,2.177l-2,2.171l-2,2.495l-2.166,3.168l-2.167,4.5l-2,3.5l-1.833,3.5l-1.167,3.5
		l-1.167,3.167l-1.166,2.958l-1.167,4.208l-0.667,3.333l-1.499,7.834l-0.667,4l-1.833,8l-0.667,3.833l-0.833,4.667l-0.5,5.167
		l0.166,4.333l-0.333,4.167v4.667v4.667l1,4.167l1,4.667l2.167,4.665l1.5,4.5l3,4.833l2.5,3.5l2.5,3.167l-0.745-3.317l-1.088-4.85
		l-0.5-6l-0.334-6.333l0.5-7.167l0.833-5.5l1.667-4.833l1-2l-0.72-1.61l-1-3.625l-0.525-2.283l-0.577-2.691l-0.803-3.291l-0.5-3.875
		l0.375-4.125l-0.375,4.125l0.5,3.875l0.803,3.291l0.577,2.691l0.525,2.283l1,3.625l1.703,4.056l2.017,5.68l1.625,3.5l2.125,3.5
		l2.75,3.625l2.75,3.25l3.875,3.125l2,2l3.375,3.375l2.75,2.625l2.75,3l-3.375-4.75l-2.75-3.75l-2.125-3.625l-1.5-3l-2.875-5.375
		l-1.625-4.5l-1.125-3.75l-1.25-4l-1.375-5.75l-0.75-6.375l-0.75-5.375l-0.375-5.5l0.25-6.5l0.125-7.125l1-6.75l1.25-5.25
		l1.125-5.875l1-3.5l0.413-1.353l0.962-3.147l-0.962,3.147l-1.413,4.853l-0.749,3.911l-1.166,5.283l-0.992,5.524l-0.468,3.157
		l-0.072,4.084l-0.097,4.178c0,0-0.127,2.947-0.127,3.322s0.056,4.015,0.056,4.015l0.18,2.621l0.228,2.1l1.688-3.392l0.896-1.802
		l1.125-3l1.875-3.625c0,0,1.75-3.125,2.125-3.5s2-2.875,2.125-3.25s2.125-2.125,2.125-2.125l0.5-1.625l2.125-2.25l2.375-1.125
		l3.125-1.75l2.125-1.25l1-2.125l-0.25-2.5l-0.5-3.5v-2.375l-0.125-2.875l-0.375-2.875l-0.146,0.834l-0.604,3.416l-0.625,2.5
		l-1.75,3.375l-1.25,2.5l-1.875,1.625l2.375-4.75l1.625-3.5l0.75-2.75l1.375-5.25l0.5-4.25l0.299-3.892l0.201-2.608l0.875,3.125
		l-0.5,1.875v3l-0.125,2.125v2.75l0.375,3.875l0.125,2.875l0.25,2.625l0.25,2.75l0.125,3.375l0.375,3l0.75,2.625l2.25,6.125l1.375,6
		l1.25,3.5l2.5,6.5l0.875,3l0.625,2.875l0.75,3.25l0.5-3.375l0.5-2.125v-2.5l-0.25-4.25l-0.125-3.5l-0.125-3.75l-0.125-3.375v-3.5
		l0.125-3l0.75,5.625l0.375,2.625l0.375,3.5l-0.25,2l-0.125,2.75l0.125,2.875l0.25,2.75l0.25,4l-0.875,1v2.375l0.375,2.75
		l0.25,2.625l0.25,4.5l0.25,5.375l0.25,3.5v7.125v3.875v3.625l-0.5,5.625l-0.625,3l-0.625,4.25l-0.875,4.25l-0.75,5.25l-2.125,5.375
		l-2.75,4.375l-2.625,2.75l2.395-1.396l2.105-1.229l3.125-2.875l3-4.125l2.875-6.5l2.375-5.125l1.5-3l1.375-4.875l0.875-4.625
		l1.375-8.125l1.125-5.125l1.25-6.5l1.375-6.625l0.125-6.5l-0.125-6.5l-0.625-6.875l-0.125-4.375l-0.75-2.75l-1.5-2.25l-1.625-1.75
		l3.125,2.5l1.875,2.5l1.625,2.25l2.75,1.75l2.25,3.25l1.875,2.625l1.125,3.5l0.75,3.25l1,5v3.25v3.125v3.25l-0.125,2.25l1.25-2
		l1-2.75l0.875-3l0.625-3.5v-4l-0.25-3.875l-0.25-4.5l-0.625-4.375l1.875,6l0.125,3.75l0.25,4.625l-0.625,4.875l-0.75,2.875
		l-1,3.375l-1,2.375l-2.25,3.25l-2.875,3.125l-2.375,3.125l-3.5,3l-2.75,2.625l-2.375,1.875l-4.125,2l-5.25,1.625l-3.25,0.5
		l-2.875,0.125l-2.625-0.25l-3.875-0.625l-3.875-1.625l-2.875-1.625l1.608,1.479l1.517,1.396l2.25,1.5l4,2l3.875,1.375l2.75,0.625
		l3.25,0.75l4,0.375l3.5-0.125l4-0.875l3.625-1.75l5.125-2.75l4.875-4.5l3.875-4.5l4.583-4.375l3-3.833l3.167-3.833l1.833-4.667
		l2-4.5l1.167-2.667l1-4l-1.323,4.738l-1.845,4.182l-2.153,5.187l-0.637,3.018l-0.708,4.043l-0.5,4l-0.333,4.333l-0.667,5.333
		l0.167,4.167l-0.5,6.333l-0.167,9.5l0.5,4l1.833-6l2-6l3.5-7.167l2.833-4.333l2.833-3.5l3.5-3.833l2.5-7l1.5-5.667l1.333-6.667
		l1-7.833l1-3.167l1.5-4.167l-1.833-2.333l-3.167-2.833l-1.833-0.5l-10.167-4l-2.833-1.167l-5-3l-2.167-1.5l-3-2.5l-1-2.333
		c0,0-1.667-2.333-1.667-2.833s-0.5-5-0.5-5l1.333-4.333l2.169-2.667l2.667-1.375h4h4.167l3,1.042l2.667,5l1.333,2.333l0.667,1.5
		l0.5,2.333v2.167l3,1.667l1.167,2.333l-0.5,2.167l-0.333,4l0.333,1.667l1.5,1.167l2.5,0.667l2,0.667l2.833,1l3.667-1l-0.333-3.667
		l-1.333-3.833l-1-4.167l-1.833-3.333l-1.669-3.668l3,3l2.167,3.833l0.5,2.667l1,2.167l1.5,2.5l1.667,3.833l1.833,3.5l0.333,2.333
		l-1.167,1.167l-1.5,1l-4,0.833l-3.5-0.833v0.833l1.333,1.167l3.667-0.167l3-0.833l3.167-1l1.5-1.333l1.833,1l1.667,2.833l1.333,3
		l1.5,3l3.333,3.167l2.833,2.833l4.167,4.333l3.333,2.5l3,2.667l3,1.667l3.333,2.167l3.667,2.333l2,1.333l-0.833,1.167l-2.333,0.666
		l-2.167-0.167l-2-2.667l-2.333-1l-3.167-1.5l-2.167-1l-3.333-1.833l-1.833-1.667l-2,0.333c0,0-0.833,1.167-0.667,1.667
		s-0.167,3.5-0.167,3.5s-0.5,1.5-0.667,2s-0.667,1.166-2.333,2.333s-4,2.167-4,2.167l-1.333,0.667l-2.166,1.167v2l-3.667,0.333
		l-3.333-0.5l-4.5-0.5l-4.5,0.5l-4.167,0.667l-3.5,1l-2.833,1.5l-3.5,2.5l-3.333,4l-2,4.167l-1.667,4l-1.333,4.833l-0.833,3
		l-1.333,3.167l-0.501,4.333l-0.667,6.333l-2.167,7l-0.5,4.167l-0.333,4.5l0.5,4.5l-0.333,4l-0.333,3.833l-1,6.333l-0.833,2.5
		l-0.667,3.167l-0.667,3.5v3.5l-0.167,3.833l0.5,3.833l1.167,2.792l1.5,3.375l2.333,2.333l1.5,1.332l0.667-2.499l-0.667-4.541
		v-3.625l0.667-5.5l0.833-2.667l1.333-2.833l-0.167-5.222l-0.333-4.278l-0.333-4.5l-0.167-5.667l0.167-3.833l1.167-5.166
		l1.167-3.333l1.667-3.667l2.333-4.667l1.833-5.667l1.333-3.667l1-3.667l0.667-3l0.833-3l1.333-2.5l-0.333,3.333l-0.833,4.168
		l-2.167,5.833l-0.333,2.334l-1.167,2.167l-1,3.333l-1.667,3.833l-2,3.667l-1.333,3.833l-1.167,6l-0.5,5l0.5,4.833
		c0,0,0.333,3.833,0.333,4.333s0.333,5.167,0.333,5.167l1.5-2.833c0,0,1.167-3.167,1.333-4.167s0.667-1,0.667-2.667
		s0.5-3.833,0.5-3.833l1.5-3l-1.041,4.208l-0.959,6.625l-1.833,4.445l-1.333,4.555l-1,3.167l-1,3l-0.5,2.667c0,0,0,5.751,0,6.459
		s-0.167,4.375-0.167,4.375s-0.795,0.707-0.713,1.992c0.031,0.48,0.184,1.041,0.546,1.676c1.333,2.334,1.833,3.5,1.833,3.5l1,5.166
		l0.333,2.5l0.667,4.332l1.167,3.668l1.833,3.834v4.166l0.167,4.834l0.167,2.334l1.667,5.332l1.667,4.168l3.167,3.666l3.5,2.834
		l3.167,2.5l3.667,2.832l2.833,1.834l5,2.334l5.167,1.834l8.666,3l6.775,0.895l7.892,0.771h6.667l8-1.5l5.667-3.166l4.167-2.668
		l4.667-2.832l4.833-3.834l2.064-2.227l2.269-2.439l3.833-3.834l2.5-3l2.5-2.334l-2.5,2.334l-2.5,3l-3.833,3.834l-3.84,4.135
		l-5.326,4.365l-3.496,2.121l-4.023,2.537l-3.868,2.27l-3.113,1.738l-8,1.5h-6.043l-7.007-0.609l-6.986-0.748l-4.852-1.539
		l-5.112-1.77l-4.254-1.51l-2.196-0.924l-1.05,0.6v1.5l1.167,1.5l1,2.5l0.833,4.164l0.833,3.336l1.667,9.5l1.5,10l0.667,5.834
		l0.666,11.83l0.167,6.5l0.5,11.168l-0.167,6.5l-0.167,5.666l-1.499,9.666l-1.333,4.668l-2.833,4.5l-2.667,3.166l-2.333,2.5h-1.501
		h-1.333l-0.584,1.707l-0.189,1.998l0.106,3.127l1.018,1.6l1.315,2.068l5.667,4.166l4.833,2.5l7.333,3.5l7.167,2.166l7.333,2.334
		l11.667,2l12.834,2.166l14.667,1.17l17.5,1.166h18.333l21.5-1.334l17-1.5l12.166-2.332l9.334-1.668l10-2.832l6.666-1.834l6.5-2.166
		l4.334-2.334l1-2.5l1.5-4.334l1-3.666l1-5.334l0.832-5.832l0.835-6.168l0.165-6l-0.165-6.332l-0.067-2.162l-0.1-3.006l-0.834,4.168
		l-1.5,5.332l-1.666,5l-3,6l-2.5,5l-2.834,5l-3,4.834l-3.666,3.334l-3.168,2.166l3.206-3.309l1.962-2.025l2.166-3.166l2.666-4.666
		l2.167-4.668l2-4l1.904-3.15l1.791-6.205l2.138-5.977l1.167-4.834l1.167-4.666l0.334-3.668l0.805-5.084l0.695-4.416l0.5-4v-6
		l0.332-6.332v-5.168l-0.085-2.492l-0.08-2.34l-1.335,4.166l-1.665,4l-2.5,4.666l-2.5,3l-2.167,2.5l1.899-3.467l0.933-1.699
		l2.168-3.5l2-4.834l2-5l2.5-4.832l2.5-7l2-7.168l1.666-7.166l1.834-7l1.332-4.666l1.668-5.168l0.832-5.332l0.5-5l-0.665-4.5
		l-0.167-4.668l-0.834-5l-1.666-7.834l-1-4.5l-1.5-4l-1.834-5.166l-2.334-6l-3.5-8.167l-2.833-5.5l-2-4.5l-2.833-6.167l-2.5-6
		l-4.167-7l-3-6l-2.5-6.333l-2.333-5.5l-0.834-4.333l-1.5-5.333l-1.333-3.833l-2.167-4l-2.5-5l-1.832-4.334l-1.834-5.167l-0.834-5.5
		l-0.832-4.833v-3.5l-0.5-5.667v-3.667l0.166-2.333l0.218-3.353l2.272-0.883l2.191-0.789l1.483,1.691l0.167,3l-0.167,2.5
		l0.834,1.667l1-0.667l0.334-2.833l-0.334-3.333l-0.667-5l0.78-4.02l1.555-4.647l1.332-2.5l2.081-2.697l1.866-2.572l2.721-1.564
		l2.5,0.5l1.166,0.667l-1.459,1.749l-0.709,3.92l0.167,3.667l-0.333,4.833l0.5,3.5v3.333l0.333,4l0.5,4.667l0.333,5l1,4.167l1,4.833
		l0.5,3c0,0,0.5,3.667,0.5,4.333s1,6.5,1,6.5v4.5l2.555,3.868l-0.174-2.865l-0.269-3.757l0.055-4.911l0.299-5.055l0.813-4.668
		l1.217-4.604l1.84-5.674l1.462-5.696l1.704-7.805l1.834-5.667l1.5-4.833l1.5-4.333l1.833-5l1.667-2.833l-1.667,2.833l-1.833,5
		l-1.841,5.43l-1.805,5.729l-1.854,5.872l-1.167,6.302l-1.333,5l-2,6.167l-1.5,5.833l-0.5,4l-0.167,4l-0.167,3.333l0.5,7
		l0.167,3.667l0.667,2.333l1,3l1.5,1.5l2.833,3l2.116,2.213l2.57,2.729l1.813,1.892l-3.958-4.129l-2.542-2.705l-2.124-2.249
		l-2.209-2.251l1.834,6.664c0,0,0.833,1.333,1,1.833s1.001,3,1.167,3.5c0.165,0.5,1.165,3,1.165,3l1.168,3.333l1.306,3.016
		l1.36,3.151l1.334,3.167l1.332,3.5l0.668,3.333l1.667,3.667l0.454,3.297l0.271,3.734l0.106,3.969l-0.333,4.167v2.499v2.834v5.167
		l-0.834,3.5l0.346-1.452l0.488-2.049v-5.167v-5.333l0.333-4.167l-0.167-6.167l-0.666-4.833l-0.667-1.667l1.833-3.333l0.667-3.667
		l1.333-4.667l0.834-5.333l-0.167-3.666l-1.168-3l-0.041-1.126l-3.791-0.041l1.155,0.077l2.636-0.036l2.875-1.541l3.166-2.667
		l2.5-2.167l3.167-4l3.5-4.167l2-2.833l2.333-4l2.092-2.673l3.683-5.251l2.061-2.575l1.333-3.333l-1.333,3.333
		c0,0-1.894,2.075-2.061,2.575s-0.771,1.289-1.439,2.123c-0.667,0.834-2.242,3.128-2.242,3.128l-2.968,4.175l-3.002,4.686
		l-1.837,2.29l-3.423,4.169l-1.862,2.353l-3.508,3.016l-2.158,1.818l-1.334,2l0.835,2l0.833,1.833l-0.167,1.333l1.315-0.928
		l1.519-1.072l3.166-2.167l4.334-2l2.5-1.667l3.666-2.833l2.834-1.833l3-2.833l2.833-2.666l4.166-2.667l3.5-2l3.334-2.833l5-2.5
		l4.166-2.333l4.166-2.167l4.834-2.5l4-1.833l3.334-1l3.5-1.333l2.832-1.833l3.168-1.667l3.166-1.833l3-2.167l2-1.167l3-3l2.5-2.333
		l2.666-2.333l2.667-3.167l1.667-3.167l1.11-2.758l1.474-3.659l-1.474,3.659l-1.11,2.758l-1.667,3.167l-2.667,3.167l-2.666,2.333
		l-1.101-2.202l-0.899-1.799l-1.5-3.833l-1.166-4.333l-1-3.333l-1.5-5.5l-1.168-3.5l-1.332-3l-1-3.167l-2.168-4l-2.332-4.667
		l-1.334-3.167l-5-5.5l-4-3.167l-3.334-4l-2.832-1.833l-1.5-2.5l-5.334-4.667l-3-4.333l-3.334-3.667l-2-5l-1.666-2.667l-5.666-7.333
		l-3-5.667l-2.168-5.5l-1.5-4.5l-1.165-3.167l-1.5-4.5l-1.667-3.667l-1-4.667l-0.5-4.833l-0.141-3.921l0.167-4.833l0.474-2.413
		c0,0,0.498-1.667,0.833-2.333c0.334-0.666,2.167-4.333,2.167-4.333l1.667-3l3.5-4.167l1.165-1.833l2.336-1.966l3.082-1.366
		l-3.082,1.366l-1.632,1.374l-1.869,2.425l-3.5,4.167l-2,3.667c0,0-1.876,3.693-2.667,5.999c-0.168,1-0.5,2.667-0.5,3.167
		s-0.031,0.923-0.031,0.923l-0.025,0.754l-2.675,2.122l-1.103,2.035c0,0-0.834,1.667-1.166,2.167
		c-0.333,0.5-2.834,4.334-2.834,4.334l-1,1.667l-1.834,4.167l-1,2.5l-0.833,3.333l-1.333,1.833l-0.834,2.333h-1.666l-1.667-3.5
		l-1-2.167l-2.167-3.833l-1.166-4.333l-1-3.833l-0.666-3.5l-0.5-3.833l-0.5-3.834l-0.834-3l-0.834-2.333l1.168-2.667l1.832-3.833
		l0.835-3.5l0.833-2.833l1.167-3.5l1-2.667l0.665-2.167l0.835-2.167l0.333-2.833l-0.334-2.167l2,2.667l1,2.5l0.334,1.833
		l0.166,2.333l0.334,2.833l0.166,2.5l0.5,3.667l0.166,3l0.334,3.667l-0.166,4.333v3.5l-0.5,3.834l-0.5,3.333l-0.168,3.833
		l2.835-3.667l1.5-3.667l2.165-6.5l0.5-4.333l0.835-5.5l0.5-6.167l-0.5-5.667l-1-6.5l-1-6l-1.5-6.167l-2.667-6.831l-3.168-6.167
		l-2.5-5.667l-2.5-3.833l-2.354-2.05l-3.583-1.132l-5.55-1.542l-6.764-1.894l-3.749-1.216l-4.161-1.31l0.729,1.941l0.765,2.035
		l1.668,3.667l2.333,5.5l1.667,6.167l1,5.333l1.166,6.333l0.5,5.667l0.5,5.5l-0.834,5.167v5.167l-1,6.333l-0.5,5.667l-1,4.667
		l-0.102-3.68l-0.064-2.32l-0.166-5.5l-0.5-5.5l-0.667-4l-1.167-3.834l-1.5-6l-1.834-5.333l-1.5-4.333l-2-4.667l-2-3.667
		l-1.332-3.167l-2.334-3.5l-1.834-3.667l-2.332-4.667l-2-3.5l-2.335-3l-2.165-2l-2-1.5l-2.834-1.333l-3.334-1.667l-5-1.333l-3-0.667
		l-3.332-0.5l-0.834,0.834l3.166,2l2.168,1.833l2.832,1.5l3.668,2.5l1.665,1.5l2.335,1.833l1.166,1.834l2.334,3l3,3.167l3.5,3
		l3.333,4.167l1.833,2.833l0.5,2.5l1.667,3.667l2,4.833l1.833,4.833l1.166,4l0.168,2.667l-0.335,2.167l-2.333-2.167l-3.333-1.5
		l-2-0.5l3,2l2.167,2.333l2.166,3.167l2.334,3.667l0.834,2.833l1.166,3.333c0,0,1.166,4.167,1.166,4.667s1.5,4.333,1.5,4.333
		l0.168,3.333l-0.168,2.5l-0.166,2.334l-1.166,3.833l2.666-2.5l1-3.833l4,3.5l8.166,8l1.668,0.333l1.332,2.667l1.168,5.667
		l1.332,4.5l1,4l1.834,1.833l2.334,3.671l2.666,2.495l1.834,2.833l3,2.333l2.166,1.667l3.166,2.833l3,1.5l1.834,1.333l-1.5,0.333
		l-3.166-1l-2.834-0.5l-2.5-1l-2.834-0.833l-1.832-1.832l-2.167-3.833l-1.333-3.333l-1.334-2.995l1.334,2.995l1.129,2.821
		l1.696,3.152l2.175,3.861l2.665,1.667l2.5,2.5l1.667,2.667l2.167,3.167l2.833,2.5l2.5,2.167l2.833,1.5l3,2l-3.5-0.333l-4.165-0.167
		l-3.835-0.5l-4.333-0.836l-3.832-2.167l-3.334-2.333l-2.166-2.167l-2.667-2.167l-2-2.333l-1.354-1.11l-0.979-4.474l0.075-3.88
		l0.008-4.38l-0.373-4.115l-0.132-4.372l0.088-3.169l-0.088,3.169l-0.078,2.831l0.5,3.667l0.166,4l-0.166,4.333l0.354,4.333
		l0.624,2.057l0.05,3.045l-0.028,2.565l-0.167,3.167l-0.5,3.667l-0.333,3.832l-0.334,3.5l-0.666,3.833l-0.834,3.334l-0.834,3.833
		l-1.5,3.333l-1.166,3.5l-1.5,4.5l-1.5,3l-1.666,4.167l-1.5,3.5l-2.167,2.667l1.333-5.833l0.667-4.667l0.167-3.5l0.166-6.167
		l-0.166-3.5l-0.334-3.667l-0.472-8.833l-0.451-2.803l-0.381-2.364l0.47,2.916l0.342,2.796l0.492,8.288l0.219,2.4l0.176,2.517
		l-1.354,2.249l-1.5,2.75l-2.298,2.052l-2.077,2.199l-1.5,2l-0.615,1.32l-0.551,1.18l-1.166-0.667l-2.5-0.5l-1.834,1l-1.958,2.041
		l-1.042,1.626l-1.834,2.167l-1.332,2.5l-0.835,3l-1.165,2.667l-0.335,3l-1.333,2.5l-4.167,1.5l-2.5,1l-0.665,2l-1.335,2.333
		l-2.833,3.167l-0.833,1.5l-0.667,1.333l-1.166,0.833l-1.334-2.5l-1.166-1.167l-0.666-2l-2.834,2l-2.166,1.333l-2.834,3.167
		l-3.334,2.333l-1.832,1.667l-2.335,1.5l-0.833,2.167l0.5,4l-0.166,3.333l-0.166,3.333v3.167l0.166,2l-2,2.333l-2.334,1.834
		l-1.832,1.167l2.5-0.167l2.332-2.167l3.668-3.333l1.665-3.833l0.835-2.5l-0.335-3.333l-0.333-3.167l2.834-2.667l2.912-1.968
		l3.254-2.199l2.168-1.667l2.832-1l1.834,3.667l1,4.083l0.334,3.917l0.833,3.167l2.167,6l1.5,8.334l0.333,6.167l1,6l0.833,4.667
		v6.999l0.666,5.667v6.833l-0.332,4.5l-0.335,6l-0.333,4.778l-1,3.722l-2.833,3.167l-4.167,1.833l-3.833,0.167l-3.167-1.667
		l-3.5-1.833l-7.166-5.389l-3.834-2.945l-5.832-5.333l-5.668-6.167l-2.166-2.667l-2.166-2.333l-1.834-2.167l-2.167-1.667l-1.5-1.333
		l2.808,6l1.359,4l0.166,2.833l0.5,3.833l0.668,4.333l0.165,3.611v3.722l0.167,5.167l0.5,4.833l0.333,4.667l-0.165,5.167v4.5
		l-0.668,7.168l-0.332,5l0.332,7l-0.166,5l-0.666,3.834l-0.167,3.5l-0.167,1.5l-1.859-2l-1.641-2.666l-1-1.834l-1.5-2l-1.333-1.666
		l-0.667-1.334l-1.167-1l-1.167-0.666l-1.167,2.5v1.5l1.5,1.834l1.333,2.5l1.668,1.832l1.5,2l1.667,2.168l1.974,2.5l0.691,1.332
		l1-2.332l1.833-3.334l1.5-3l1.667-2.166l1.833-3.168l1.667-4.166l1.833-4.334l1.833-3.834l1.334-4.5l1.5-4.666l0.834-4l1-5.5
		l0.5-4.667l0.5-4.167l0.666-4.333l0.168-3.333l0.166-3l2.168,1l3.665,2.333l1.5,1.5l-0.318,2.13l-0.682,4.537l-0.833,5.333
		l-0.333,2.333l-0.5,2.167l1.666,0.667l5.839,1.42l4.983,1.211l1.512,0.369l0.666-1.834l1.938-2.904l2.063-3.096l1.334-1.667
		l1.666-0.667l3.926-0.091l3.241-0.076l2-0.167l1.5,1.333l3.5,3.5l3.833,3.5l1.167,1.5l1,2.334l0.167,4.668v5.332l-0.5,2l-1,2.168
		l-2,3.834l-1.5,2.832l-1.5,2.5l-1.334,1l-2.5,0.168l-2.833-0.168l-3-1.666l-4.333-5l-3.333-4.166l-1.666-2.332l-2-3l-0.667-3.168
		v-2.332l1.833-1.168l2.535,0.105l1.465,0.063l0.273,1.842l0.227,1.49l0.334,1.334l1,0.832l2-0.5c0,0,0.999-0.666,1.166-1.166
		s0.667-1.168,0.667-1.168l1.333-0.166l1.167,0.666v1.834l-0.333,2l-0.5,0.832c0,0-1.5,0.668-1.5,1.168s1.166,2.832,1.166,2.832
		l1.334,1.168l2.833-0.168l1.667-0.332l0.833-1.668l0.167-2.166l-1-1.834l-1-0.5l-0.5-2.166l0.166-1.668h1.666l0.834,1.168
		l1.166,0.666l2.334-0.164l0.5-2.834l-0.166-2l-1-1.5l-1-0.832l-1.5,0.166l-0.834,1.332l-0.834,1l-1.332,0.168l-0.5-1v-1.668l0.5-1
		l1.165-0.5l-0.165-2.5l-0.834-1.833l-1.666-1.208h-1.334h-1.334l-1,0.875l-1.166,1.5l-0.166,2v1l1.5,0.833v1.832l-1.167,0.668
		l-1.833-0.168l-1-1h-1.167l-0.667,0.668l-1.834,0.166l-2.666-0.166l-1.667-1.5l-1.512-0.367l-4.983-1.212l-5.839-1.42l-1.666-0.667
		l-0.666,4.333l-1.333,5.5l-1.168,3.334l-2.832,7.166l-2,4.502l-2.168,4.666l-2.5,4.666l-2,3.5l-2.332,4.168l-2.5,3.666l-2.5,3.166
		l-2.168,4l-1.025,1.188l-2.141,2.48l-1.404-1.074l-1.429-1.094l-1.5-2.5l-2.667-4.332l-2.167-3.334l-1.833-4.334l-3.333-3.5
		l-1.167-1.332l-3.5,1.332l-3.833,2l-8.5,2.334l-3.333,1.334l-3,0.666l-4.835,0.334l-4.5,0.5l-3,1.5l-1.5,2l-5.167,4.166l-2.5,2.166
		l-4.5,2l-5,2.5l-6.833,1.834l-4,1.166l-5,0.334h-6.667l-6.333-1l-5.333-1l-5.333-2.166l-4.5-2.668l-4.5-3.832l-3-5l-2.667-2.834
		l-2.333-3.834l-1.5-3.5l-0.834-4.166l-0.667-4.334l0.667-3.666l3.833,1.332l3.667,0.668l4,0.5l6.292,0.666l4.041-2l4.46,2.967
		l3.962,2.885l3.981,1.803l3.678,0.732l2.919,1.113l-2.167-1l-3.333-0.5l-3.167-1l-3.333-2l-3.333-2.666l-3.668-2.334l-2.5-2.057
		l-3.5-2.443l-4.167-3.334l-4.666-4.666l-3.833-4.668l-2.833-4l-2.292-2.833l-1.5-3.375l-0.376-2.793l-1.833,2.959l-0.666,3.959
		l-0.73,2.94l-0.436,3.143l-1,4l-1.167,5l-0.167,4.668l-0.167,4.334l0.167-4.334l0.167-4.668l1.167-5l1-4l0.436-3.143l0.73-2.94
		l0.666-3.959l1.833-2.959l0.5-1.833l1.667-2.167l1.167-1.833l0.833-2.333l0.333-2.667l0.167-3.833l0.833-3l0.5-3l0.333-3
		l0.667-2.167l0.833-3.5l0.833-3l1.167-3l1.167-2.833l2-3.5l1.333-2.333l1.5-2l1.833-1.333l2.5-2.667l1.667-3.5l3-2.167l1.667-2.167
		l1.173-3.985l0.495-1.682l-2.833,1l-1.942,1.318l-2.725,1.849l-4,2.833l-2.997,3.219l-2.397,3.14l-1.551,2.646l-1.69,3.368
		l-1.983,3.808c0,0-1.423,2.487-1.423,2.987s-0.625,4.665-0.625,4.665l0.625-4.665l2.542-5.002l2.167-4.5l2.833-4.833l4.5-4.833
		l4-2.833l2.725-1.849l1.942-1.318l2.833-1l1.229-1.076l2.771-2.424l9.167-6.333l10.5-2.167l5.667-1.833l0.5-4.833l0.833-6
		l1.167-5.5l1.333-3.333l1.167-2.167l1.833-2.5l2.667-2l3.167-3l2-1.833l0.167-2.667l1.167-3.5l1.167-2.333l1.667-2.667l1.667-2.167
		l2.167-1.5l2-0.833l3.667-0.5l3.833,0.333l3.668,0.5l6.167,0.333l2.833,1l2.5,1l0.833-1.167l-2.333-1.333"/>
</g>
</svg>
