<?xml version="1.0" encoding="utf-8"?>
<!-- Generator: Adobe Illustrator 15.0.0, SVG Export Plug-In . SVG Version: 6.00 Build 0)  -->
<!DOCTYPE svg PUBLIC "-//W3C//DTD SVG 1.1//EN" "http://www.w3.org/Graphics/SVG/1.1/DTD/svg11.dtd">
<svg version="1.1" id="图层_1" xmlns="http://www.w3.org/2000/svg" xmlns:xlink="http://www.w3.org/1999/xlink" x="0px" y="0px"
	 width="595.28px" height="841.89px" viewBox="0 0 595.28 841.89" enable-background="new 0 0 595.28 841.89" xml:space="preserve">
<path fill-rule="evenodd" clip-rule="evenodd" d="M224.28,189.865c10.197,26.099,46.684,28.489,71,45
	c6.099,4.141,14.27,11.709,20,11c9.382-1.162,9.667-17.487,21-19c11.976-1.599,16.271,5.543,23,13c-29.891,9.776-9.466,69.868-47,72
	c-2.321,15.013-1.392,33.276-4,48c-11.054,4.319-15.804-8.269-24-10c-5.308-1.121-10.989,1.652-16,1
	c-14.663-1.909-24.221-10.809-30-25c24.105,1.105,32.36-13.64,50-19c-8.046-17.179-29.041-25.003-42-40
	C231.418,249.667,218.407,219.044,224.28,189.865z"/>
</svg>
