<?xml version="1.0" encoding="utf-8"?>
<!-- Generator: Adobe Illustrator 23.0.0, SVG Export Plug-In . SVG Version: 6.00 Build 0)  -->
<svg version="1.1" id="图层_1" xmlns="http://www.w3.org/2000/svg" xmlns:xlink="http://www.w3.org/1999/xlink" x="0px" y="0px"
	 viewBox="0 0 1920 1080" style="enable-background:new 0 0 1920 1080;" xml:space="preserve">
<path d="M1344.4,443.6c-20-1.4-32.5,9.6-42.9,24.6c-0.3-0.3-0.5-0.6-0.8-0.9c0-4.6-0.6-9.4,0.1-13.8c1.3-7.3,2.9-14.7,5.4-21.7
	c4.6-12.8,14.9-18.8,27.8-20.8c3.1-0.5,6.3-0.8,10-1.2c0.1-1.3,0.2-2.7,0.2-4.2c0-5.6-0.3-11.1,0.2-16.6c0.2-2.1,1.6-4.9,3.2-5.7
	c1.6-0.8,4.9-0.4,6.4,0.8c14.4,12,28.7,24.1,42.9,36.4c3.6,3.1,3.5,7.8-0.1,10.9c-14.2,12.2-28.4,24.4-42.9,36.4
	c-1.4,1.2-4.7,1.7-6,0.8c-1.8-1.1-3.4-3.8-3.6-5.9C1344.1,456.5,1344.4,450.2,1344.4,443.6z"/>
</svg>