<?xml version="1.0" encoding="iso-8859-1"?>
<!-- Generator: Adobe Illustrator 23.0.0, SVG Export Plug-In . SVG Version: 6.00 Build 0)  -->
<svg version="1.1" id="&#x56FE;&#x5C42;_1" xmlns="http://www.w3.org/2000/svg" xmlns:xlink="http://www.w3.org/1999/xlink" x="0px"
	 y="0px" viewBox="0 0 1920 1080" style="enable-background:new 0 0 1920 1080;" xml:space="preserve">
<path d="M137.503,55.491c-1.192-1.3-2.312-2.675-3.587-3.886c-5.8-5.506-11.695-10.912-17.455-16.459
	c-4.782-4.605-5.165-9.078-1.34-13.088c3.482-3.651,9.214-3.839,13.528-0.007c7.223,6.415,14.24,13.062,21.327,19.63
	c4.276,3.963,8.28,8.273,12.877,11.816c2.4,1.85,5.773,3.177,8.786,3.349c7.973,0.456,16.008-0.179,23.981,0.272
	c5.331,0.302,9.075-1.589,12.781-5.175c10.056-9.728,20.414-19.143,30.652-28.682c0.366-0.341,0.721-0.695,1.103-1.016
	c4.788-4.028,10.659-3.932,14.288,0.229c3.377,3.872,2.652,8.79-2.023,13.174c-5.832,5.468-11.726,10.87-17.55,16.346
	c-1.142,1.074-2.089,2.355-4.005,4.546c3.012,0.216,4.721,0.441,6.431,0.445c14.998,0.028,30.029,0.655,44.986-0.124
	c26.071-1.358,42.895,19.201,45.642,40.572c0.36,2.804,0.682,5.639,0.685,8.459c0.033,35.162,0.349,70.328-0.147,105.483
	c-0.268,18.975-8.517,33.978-25.917,43.002c-7.616,3.95-15.9,4.678-24.288,4.377c-3.363-0.121-5.288,0.463-6.42,4.285
	c-2.106,7.109-7.762,10.631-15.143,10.571c-7.269-0.059-12.553-3.763-14.763-11.095c-0.918-3.046-2.341-3.775-5.28-3.768
	c-34.495,0.087-68.99,0.088-103.486,0.005c-3.195-0.008-4.956,0.55-6.042,4.112c-2.214,7.26-7.931,10.83-15.558,10.748
	c-7.066-0.076-12.186-3.688-14.361-10.862c-0.975-3.215-2.546-4.112-5.701-4.002c-9.894,0.345-19.672-0.243-28.515-5.465
	c-16.543-9.769-23.504-25.091-23.711-43.473c-0.403-35.824-0.304-71.656-0.096-107.483c0.12-20.603,14.205-38.937,33.532-44.132
	c3.791-1.019,7.905-1.108,11.874-1.139c15.664-0.123,31.329-0.053,46.993-0.054c1.775,0,3.551,0,5.326,0
	C137.106,56.497,137.304,55.994,137.503,55.491z M143.042,206.336c0.058,11.977,5.343,15.021,15.755,9.223
	c0.436-0.243,0.886-0.46,1.319-0.709c26.803-15.445,53.612-30.88,80.404-46.344c11.77-6.794,11.794-13.207,0.016-20.093
	c-22.544-13.179-45.121-26.301-67.705-39.412c-5.894-3.422-11.733-6.979-17.835-9.993c-5.649-2.79-10.276-0.213-11.466,5.965
	c-0.405,2.105-0.481,4.298-0.486,6.452c-0.039,15.652-0.021,31.304-0.021,46.956C143.023,174.366,142.965,190.352,143.042,206.336z"
	/>
</svg>
