<?xml version="1.0" encoding="utf-8"?>
<!-- Generator: Adobe Illustrator 15.0.0, SVG Export Plug-In . SVG Version: 6.00 Build 0)  -->
<!DOCTYPE svg PUBLIC "-//W3C//DTD SVG 1.1//EN" "http://www.w3.org/Graphics/SVG/1.1/DTD/svg11.dtd">
<svg version="1.1"
	 id="svg8" inkscape:version="0.92.4 (5da689c313, 2019-01-14)" sodipodi:docname="鎷滀簡涓嫓.svg" xmlns:dc="http://purl.org/dc/elements/1.1/" xmlns:cc="http://creativecommons.org/ns#" xmlns:rdf="http://www.w3.org/1999/02/22-rdf-syntax-ns#" xmlns:svg="http://www.w3.org/2000/svg" xmlns:sodipodi="http://sodipodi.sourceforge.net/DTD/sodipodi-0.dtd" xmlns:inkscape="http://www.inkscape.org/namespaces/inkscape"
	 xmlns="http://www.w3.org/2000/svg" xmlns:xlink="http://www.w3.org/1999/xlink" x="0px" y="0px" width="595.275px"
	 height="841.891px" viewBox="0 0 595.275 841.891" enable-background="new 0 0 595.275 841.891" xml:space="preserve">
<sodipodi:namedview  id="base" showgrid="false" inkscape:cy="707.55529" inkscape:cx="23.610873" inkscape:zoom="0.49497475" borderopacity="1.0" bordercolor="#666666" pagecolor="#ffffff" inkscape:window-maximized="1" inkscape:window-y="-11" inkscape:window-x="-11" inkscape:window-height="986" inkscape:window-width="1920" inkscape:current-layer="layer1" inkscape:document-units="mm" inkscape:pageshadow="2" inkscape:pageopacity="0.0">
	</sodipodi:namedview>
<g id="layer1" inkscape:label="Layer 1" inkscape:groupmode="layer">
	
		<path id="path12" inkscape:connector-curvature="0" sodipodi:nodetypes="cccccccccccccccccccccccccccccccccccccccccccccccccccc" fill="none" stroke="#000000" stroke-width="0.4237" d="
		M199.115,159.899c-13.357-20.085-32.133-22.206-35.273-14.697c-1.222,1.469-2.462,2.885-3.721,4.25
		c-7.594,8.237-15.842,14.644-24.482,19.93c-9.986,6.11-20.496,10.724-31.124,14.936c-8.073,4.229-11.981,17.424,4.784,11.834
		l10.878-2.546l4.473-1.047c1.171,0.804,2.129,1.851,2.914,3.094c3.32,5.261,3.547,14.038,3.797,22.786
		c0.043,1.505,0.087,3.009,0.147,4.494c-1.144,0.322-2.352,0.627-3.606,0.919c-14.319,3.334-34.632,5.043-32.647,12.799
		c2.438,3.929,6.131,6.495,10.832,7.972c6.019,1.891,13.688,1.995,22.48,0.881c0.861-0.109,1.733-0.229,2.615-0.361l-0.111,2.966
		l-0.663,17.667l-0.206,5.496c-1.454,0.284-2.914,0.59-4.378,0.912c-15.783,3.466-32.069,8.806-47.245,9.369
		c-36.685-3.675-19.681,14.632-14.352,20.421c5.655,8.295,13.742,8.903,23.145,6.322c11.344-3.114,24.602-10.871,37.812-15.369
		c1.129-0.385,2.258-0.746,3.386-1.078c-0.31,1.665-0.64,3.315-0.992,4.953c-2.804,13.064-6.947,25.307-12.591,37.239
		c-4.848,10.249-10.803,20.267-17.97,30.377c-5.17,7.294-10.97,14.636-17.438,22.148c-6.416,8.411-3.598,15.409,12.085,7.186
		c19.603-13.735,33.887-30.552,43.588-48.273c3.712-6.78,6.753-13.693,9.165-20.616c4.091-11.745,6.372-23.52,7.042-34.729
		c0.057-0.957,0.103-1.909,0.136-2.857c1.077-0.457,2.212-0.907,3.395-1.351c20.194-7.582,54.22-13.435,47.393-23.797
		c-7.464-10.35-26.419-2.675-43.968,2.793c-1.248,0.389-2.488,0.766-3.716,1.125l0.181-4.943l0.622-17.001l0.177-4.836
		c1.259-0.354,2.537-0.704,3.823-1.052c16.431-4.448,34.173-8.616,31.124-17.238c-5.385-9.771-16.503-10.161-30.632-5.625
		c-1.304,0.419-2.634,0.88-3.988,1.379c-0.023-1.73,0.052-3.518,0.153-5.32c0.565-10.068,1.955-20.618-8.205-24.446
		c-1.008-0.38-2.13-0.694-3.378-0.935c1.544-0.546,3.145-1.08,4.787-1.604c17.488-5.583,39.674-10.126,48.003-18.086
		c0.841-0.803,1.541-1.642,2.08-2.519l3.743,1.872l7.064,3.532l4.217,2.108c-0.575,1.006-0.975,1.98-1.184,2.916
		c-1.46,6.546,6.425,11.148,28.857,10.904c1.388-0.015,2.833-0.049,4.333-0.102l0.08,2.709l0.442,15.017l0.132,4.483
		c-0.555,0.097-1.12,0.189-1.691,0.279c-14.22,2.234-32.942,2.602-32.113,11.152c2.533,9.844,16.674,9.14,28.151,9.121
		c1.958-0.003,3.839,0.013,5.572,0.106v2.863v9v4.548c-0.913,0.214-1.875,0.42-2.873,0.621c-3.089,0.621-6.53,1.188-9.987,1.774
		c-11.54,1.957-23.259,4.125-22.659,9.198c2.434,11.956,19.917,10.581,31.696,8.744c1.236-0.192,2.409-0.39,3.495-0.578
		l-0.063,3.342l-0.119,6.338l-0.126,6.696l-0.1,5.342c-1.069,0.317-2.191,0.616-3.359,0.9c-5.387,1.309-11.768,2.286-18.514,3.12
		c-3.904,0.483-7.931,0.917-11.959,1.34c-5.327,0.56-10.655,1.099-15.701,1.703c-18.851,2.254-33.778,5.402-30.077,13.841
		c8.002,10.733,20.03,11.273,33.306,8.696c8.778-1.705,18.102-4.772,27.169-7.159c4.498-1.184,8.933-2.2,13.206-2.798
		c1.959-0.274,3.884-0.461,5.766-0.536l0.024,2.545l0.025,2.657l0.515,54.671l0.415,43.987
		c-0.602,11.475,10.476,16.118,17.311-0.979c2.635-8.521,4.33-17.513,5.405-26.796c1.689-14.591,1.846-29.899,1.714-45.226
		c-0.088-10.283-0.307-20.573-0.28-30.661c0.003-1.158,0.009-2.313,0.02-3.465c1.833-0.205,3.668-0.392,5.508-0.563
		c4.765-0.444,9.555-0.777,14.367-1.01c15.268-0.737,30.764-0.451,46.427,0.594c22.646-0.523,21.306-8.119,10.124-18.617
		c-17.127-17.854-45.398-4.036-70.011-0.616c-1.011,0.141-2.016,0.264-3.013,0.366c-1.033,0.106-2.059,0.19-3.075,0.25l-0.052-3.601
		l-0.189-13.012l-0.048-3.328l-0.038-2.596c0.865-0.342,1.791-0.664,2.767-0.969c15.048-4.713,41.893-5.574,37.406-16.667
		c-5.443-9.697-20.1-7.792-36.214-4.051c-1.096,0.254-2.199,0.517-3.306,0.786l-0.543-12.497l-0.11-2.527
		c0.682-0.142,1.366-0.283,2.05-0.424c1.22-0.252,2.441-0.503,3.66-0.755c6.789-1.405,13.477-2.834,19.171-4.499
		c7.496-2.191,13.271-4.79,15.29-8.278c0.707-1.22,0.954-2.548,0.655-4.006l2.64,0.681l42.656,11.008l5.328,1.375
		c0.416,5.299,4.964,11.161,15.659,17.862c1.42,0.89,2.948,1.794,4.59,2.714c1.187-0.244,2.375-0.491,3.564-0.743
		c23.555-4.979,47.523-11.407,70.906-15.784c6.855-1.284,13.661-2.391,20.391-3.234c2.466-0.309,4.922-0.582,7.366-0.815
		c-1.005,1.454-2.022,2.884-3.053,4.292c-11.508,15.712-24.597,28.529-38.1,39.473c-17.496-5.354-26.714-6.163-15.023,12.411
		c5.915,12.926,9.185,29.826,10.141,46.598c0.801,14.051-0.022,28.011-2.274,39.47c-1.097,5.577-2.531,10.562-4.282,14.675
		c-0.803,1.885-1.672,3.586-2.604,5.079l-5.341-1.387l-4.544-1.18l-15.264-3.965c-6.443-1.622-10.302,0.35,0.663,10.212
		c0.879,0.791,1.854,1.632,2.93,2.526"/>
	
		<path id="path14" inkscape:connector-curvature="0" sodipodi:nodetypes="cccccccccsc" fill="none" stroke="#000000" stroke-width="0.4237" d="
		M408.469,386.891l-1.601,3.251l-4.939,10.03l-5.926,12.032l-6.126,12.439l-2.638,5.358c-1.448-0.936-2.791-1.713-4.039-2.349
		c-13.232-6.74-15.828,2.477-20.453,8.648c-16.463,17.708-34.869,21.808-52.425,31.87c-13.396,9.47-9.996,17.137,1.386,13.857
		l13.914-2.854l4.1-0.842c4.565,5.852,4.868,14.899,5.371,23.798c0.109,1.939,0.229,3.872,0.403,5.763
		c-1.21,0.233-2.435,0.464-3.665,0.693c-14.644,2.729-30.152,5.265-32.748,10.67c-0.463,0.965-0.515,2.021-0.076,3.187l-2.844,0.267
		l-35.903,3.366l-5.594,0.524c-0.925-0.038-3.15-0.727-6.347-1.992c-9.591-3.797-27.93-12.789-46.162-25.016
		c-0.51-0.342-1.02-0.689-1.53-1.043c-8.468-5.865-16.866-13.216-24.448-20.811c-7.873-7.885-14.864-16.032-20.138-23.055
		c-0.808-1.075-1.575-2.124-2.299-3.142"/>
	
		<path id="path16" inkscape:connector-curvature="0" sodipodi:nodetypes="ccccccccccccccccccccccccccccccccccccccccccccc" fill="none" stroke="#000000" stroke-width="0.4237" d="
		M153.741,451.545c1.246-1.222,2.39-2.43,3.401-3.62c5.758-6.778,7.203-12.982-1.322-17.857
		c-10.008-5.655-21.851-16.304-21.247,6.928c-5.977,26.509-20.801,48.505-38.4,66.818c-14.621,15.215-31.157,27.887-46.126,38.493
		c-6.395,9.571,5.179,8.859,10.162,5.081c10.705-3.932,19.821-9.358,28.03-15.64c13.682-10.469,24.842-23.311,36.636-35.556
		c0.843-0.875,1.688-1.747,2.539-2.615l2.671,1.278l2.64,1.262l2.31,12.702c5.087,30.849,0.055,54.951-1.617,81.293
		c-3.024,21.314,1.631,34.766,9.7,34.642c11.018-1.544,11.623-17.55,11.778-34.18c-0.003-25.378-2.816-50.287,0.462-76.212
		c5.479-12.654-1.865-15.691-8.314-19.399c-6.527-2.063-11.37-2.44-14.203-0.809l-2-1.104l-2.388-1.32l1.97-3.313l14.611-24.564
		l1.895-3.186l1.734,2.395l38.335,52.917c8.262,14.975,19.844,20.35,42.263,19.169c9.211-0.27,20.167,1.07,24.769-3.454
		c0.657-0.646,1.185-1.412,1.56-2.319l4.3-0.44l36.555-3.75l4.179-0.429c0.885,1.052,1.807,1.942,2.765,2.693
		c7.702,6.04,17.68,3.016,28.693,1.798c1.279-0.142,2.572-0.259,3.877-0.334l-0.195,3.258l-1.136,18.972l-0.286,4.791l-4.116,0.908
		l-42.996,9.484c-39.382-4.484-27.295,13.222-16.629,23.095c10.663,10.194,25.81,3.096,41.037-4.32
		c5.524-2.69,11.059-5.422,16.395-7.385c1.505-0.554,2.994-1.046,4.462-1.459c-0.111,2.049-0.323,4.098-0.627,6.146
		c-0.99,6.684-2.952,13.367-5.563,20.051c-2.806,7.185-6.36,14.369-10.265,21.555l-28.741,42.132
		c-9.794,13.989-7.991,18.875,0.777,15.157c3.79-1.607,8.881-4.822,14.899-9.604c5.917-4.858,11.489-10.103,16.648-15.81
		c12.606-13.942,22.745-30.649,29.41-51.247c2.752-8.503,4.911-17.669,6.408-27.577c0.28-1.853,0.537-3.73,0.771-5.635l3.941-1.264
		l4.934-1.582l33.91-10.872c13.101-2.4,7.986-17.924-4.246-16.33l-31.4,8.278l-4.526,1.193l0.109-4.391l0.467-18.655l0.077-3.083
		c1.55-0.53,3.049-0.994,4.521-1.422c8.307-2.414,15.758-3.687,26.507-9.355c11.736-11.61,0.101-14.229-6.206-16.004
		c-7.456-1.101-12.984,0.689-18.79,2.008c-1.646,0.374-3.313,0.71-5.052,0.932c0.123-2.894,0.401-5.873,0.564-8.788
		c0.459-8.225-0.004-15.942-7.479-19.803c-0.412-0.213-0.846-0.414-1.302-0.604c-1.145-0.474-2.429-0.87-3.869-1.18l6.812-2.232
		l32.055-10.506c18.227-4.269,20.522-11.87,6.432-22.903c-1.069-0.838-2.233-1.695-3.492-2.572l2.729-5.459l4.866-9.733
		l10.934-21.867l2.047-4.094c1.227,1.393,2.436,3.085,3.636,4.928c3.407,5.232,6.743,11.679,10.208,15.936
		c2.449,3.008,4.962,4.922,7.61,4.54c0.572-0.083,1.15-0.272,1.735-0.581l0.081,2.145l0.991,26.001l0.233,6.148
		c-1.055,0.44-2.294,0.805-3.623,1.137c-6.813,1.7-15.971,2.536-14.666,8.335c2.497,11.538,16.032,9.028,27.168,9.573
		c2.299,0.112,4.495,0.354,6.472,0.878l0.175,3.893l0.556,12.413l0.073,1.634l0.177,3.943"/>
	
		<path id="path29" inkscape:connector-curvature="0" sodipodi:nodetypes="ccccccccccccscccccccccccccccccccccccccccccccccc" fill="none" stroke="#000000" stroke-width="0.4237" d="
		M451.581,492.058c-1.299,0.227-2.648,0.432-4.03,0.624c-1.875,0.261-3.808,0.498-5.75,0.731c-12.317,1.48-24.993,2.814-25.474,9.17
		c2.918,6.944,11.141,11.295,30.868,10.021c1.285-0.083,2.619-0.189,4.004-0.321l0.14,5.155l0.216,8.004l0.106,3.931
		c-1.419,0.206-2.871,0.402-4.339,0.594c-16.86,2.195-35.875,3.726-31.227,12.57c8.361,9.902,19.748,9.049,31.546,6.735
		c1.183-0.232,2.369-0.479,3.558-0.731l-0.057,5.24l-0.105,9.666l-0.069,6.341l-3.238,0.517l-5.734,0.913l-64.929,10.349
		c-13.912,3.142-6.049,12.183,3.002,17.321c6.451,4.282,20.025,1.975,35.07-1.438c8.675-1.969,17.839-4.306,26.407-5.959
		c1.978-0.382,3.923-0.728,5.823-1.023c0.823-0.128,1.639-0.247,2.444-0.355l0.027,3.663l0.046,6.334l0.167,23.001l0.301,41.331
		l0.152,20.82c0.998,7.83-0.051,17.6,8.775,18.014c2.895,0.644,8.247-3.294,11.857-16.119c1.234-4.385,2.265-9.809,2.923-16.444
		c0.735-7.406,1.362-21.653,1.781-36.275c0.426-14.884,0.637-30.157,0.527-39.002c-0.058-4.709-0.206-7.596-0.461-7.632
		c1.162-0.324,2.336-0.618,3.521-0.884c0.957-0.215,1.922-0.412,2.894-0.592c4.065-0.753,8.246-1.209,12.505-1.461
		c11.67-0.689,23.93,0.154,36.046,0.627c16.056-0.368,37.004,2.5,24.712-16.628c-4.322-7.695-23.315-14.217-34.411-9.699
		c-0.79,0.197-9.097,1.577-18.348,3.092c-8.077,1.323-16.873,2.748-22.014,3.58c-2.74,0.443-4.442,0.718-4.442,0.718l-0.124-5.779
		l-0.236-10.995l-0.102-4.703c1.526-0.437,3.114-0.861,4.739-1.279c4.382-1.128,9.036-2.205,13.496-3.318
		c6.509-1.625,12.602-3.327,16.822-5.376c4.696-2.28,7.075-4.99,5.127-8.502c-7.358-9.809-20.942-7.823-35.446-4.095
		c-1.646,0.424-3.306,0.87-4.969,1.323l0.073-5.054l0.102-7.003l0.056-3.879c2.15-0.402,4.291-0.807,6.402-1.218
		c20.183-3.927,37.633-8.47,34.244-17.72c-7.555-10.261-20.709-8.438-35.367-3.368c-1.59,0.55-3.197,1.138-4.817,1.752l0.076-3.557
		l0.127-5.99l0.17-8.004l0.089-4.158c1.132-0.287,2.289-0.567,3.465-0.842c19.046-4.444,42.88-7.434,39.953-18.558
		c-5.816-7.271-14.911-11.263-30.716-8.545l-44.935,10.323l-3.142,0.721l-3.193,0.734l-0.194-4.686l-1.191-28.802
		c0.996-0.549,1.954-1.157,2.875-1.82c2.439-1.758,4.617-3.911,6.554-6.424c4.899-6.358,8.258-15.027,10.433-25.473
		c5.634-26.829,1.421-54.816,0.23-82.448c-0.951-9.041,0.647-23.18-2.142-28.547c-0.556-1.07-1.286-1.792-2.246-2.054
		c0.754-0.578,1.508-1.148,2.262-1.713c16.657-12.475,33.313-21.896,49.971-32.809c5.777-2,12.143-2.822,17.146-6.368
		c4.488-4.633-1.206-12.953-11.268-20.413l0,0c-3.733-2.676-7.65-6.124-13.657-6.844c-4.015-0.482-8.962,0.254-15.411,3.251
		c-19.768,4.475-38.245,7.351-55.85,9.146c-2.524,0.188-5.209,0.481-7.953,0.815c-9.147,1.111-18.952,2.668-25.687,2.288
		l-12.999-0.229l-9.687-0.17l-5.239-0.092l-3.749-1.016l-30.279-8.207l-18.393-4.985c-8.479-6.5-18.728-5.775-29.683-2.17
		c-2.219,0.73-4.466,1.579-6.734,2.509c-1.138,0.467-2.281,0.954-3.428,1.458l-0.007-3.886l-0.015-8.334l-0.012-6.666l-0.006-3.228
		c1.369-0.395,2.782-0.771,4.223-1.132c18.262-4.586,41.153-6.965,39.157-18.595c-1.752-9.379-21.455-13.771-45.266-4.85
		l-43.945,10.301l-5.742,1.346l-4.007,0.939l-17.214-9.66"/>
</g>
</svg>
